<svg width="25" height="24" viewBox="0 0 25 24" fill="none" xmlns="http://www.w3.org/2000/svg">
<path fill-rule="evenodd" clip-rule="evenodd" d="M14.2682 3.76549C13.8181 1.9115 11.1814 1.9115 10.7313 3.76549C10.4406 4.96315 9.06841 5.53151 8.01595 4.89023C6.38672 3.89752 4.52228 5.76196 5.51499 7.39119C6.15626 8.44366 5.5879 9.8158 4.39025 10.1065C2.53626 10.5566 2.53626 13.1934 4.39025 13.6434C5.5879 13.9342 6.15626 15.3063 5.51499 16.3588C4.52228 17.988 6.38672 19.8525 8.01595 18.8598C9.06841 18.2185 10.4406 18.7869 10.7313 19.9845C11.1814 21.8385 13.8181 21.8385 14.2682 19.9845C14.559 18.7869 15.9311 18.2185 16.9836 18.8598C18.6128 19.8525 20.4772 17.988 19.4845 16.3588C18.8432 15.3063 19.4116 13.9342 20.6093 13.6434C22.4633 13.1934 22.4633 10.5566 20.6093 10.1065C19.4116 9.8158 18.8432 8.44366 19.4845 7.39119C20.4772 5.76196 18.6128 3.89752 16.9836 4.89023C15.9311 5.53151 14.559 4.96315 14.2682 3.76549ZM12.4998 15.4375C14.4673 15.4375 16.0623 13.8425 16.0623 11.875C16.0623 9.90748 14.4673 8.3125 12.4998 8.3125C10.5322 8.3125 8.93726 9.90748 8.93726 11.875C8.93726 13.8425 10.5322 15.4375 12.4998 15.4375Z" fill="url(#paint0_linear_118_4315)"/>
<defs>
<linearGradient id="paint0_linear_118_4315" x1="0.516543" y1="-5.86596" x2="27.6385" y2="-4.74189" gradientUnits="userSpaceOnUse">
<stop stop-color="#E85EFF"/>
<stop offset="1" stop-color="#6E1B93"/>
</linearGradient>
</defs>
</svg>
