<svg width="430" height="168" viewBox="0 0 430 168" fill="none" xmlns="http://www.w3.org/2000/svg">
<path d="M211.289 107.203C224.085 107.203 237.831 104.723 242.136 97.4177C243.565 94.9936 244.643 90.9584 241.663 85.5003C238.773 80.2043 238.881 73.9725 241.953 68.8308C245.575 62.7697 262.283 44.6688 325.293 66.1789C338.23 70.5928 346.381 62.2039 352.926 55.4567C360.227 47.9301 364.251 43.7813 372.182 54.6293C373.948 57.2449 375.649 60.3083 377.45 63.5522C383.175 73.8641 389.664 85.5515 401.532 85.6195L401.815 85.6207L402.09 85.5385C468.855 65.6251 597.775 55.183 605.019 57.5625C604.511 57.3962 603.735 56.5511 603.683 55.2664L608.28 54.9863C608.244 54.1087 607.884 53.2977 607.291 52.7601C606.45 51.995 605.297 50.9499 582.178 52.3683C566.866 53.3063 547.695 55.0386 528.197 57.2439C497.836 60.6784 441.04 68.1981 401.28 80.0116C392.013 79.7774 386.791 70.3696 381.264 60.4145C379.483 57.2057 377.64 53.8884 375.679 50.9859C364.708 35.9744 356.867 44.0493 349.951 51.1806C343.646 57.6794 337.122 64.4027 326.536 60.7833C262.465 38.9108 243.437 56.8204 238.23 65.5354C234.042 72.5443 233.889 81.3819 237.83 88.602C239.465 91.5974 238.991 93.1416 238.396 94.1508C233.51 102.442 204.262 103.404 191.313 99.205C188.181 98.1576 186.234 96.3529 185.376 93.6912C182.485 84.7158 191.601 66.8238 197.635 54.9841C203.357 43.7519 206.23 38.1143 203.504 34.9295C201.51 32.5939 198.199 33.604 190.388 38.9284C183.914 43.3401 173.988 51.0823 160.045 62.5936C158.777 63.4757 157.747 63.7756 156.981 63.4855C155.234 62.8244 153.739 58.9841 152.295 55.2696C150.518 50.7024 148.508 45.5357 144.912 43.0885C141.527 40.0798 137.383 43.8612 133.001 47.8614C128.044 52.3881 124.068 55.6507 121.766 53.1476C117.725 48.7492 114.161 43.6883 110.715 38.794C103.125 28.015 95.2772 16.8703 81.8502 11.8587C78.1732 10.4864 74.701 11.3082 72.3312 14.1166C69.867 17.0343 67.5618 23.298 70.5754 36.5678L70.7858 37.4982C75.4742 58.1361 78.8609 73.049 74.8143 77.8165C70.293 83.1399 54.0789 77.7934 42.2765 73.3075L41.9878 73.2221C34.7037 71.6713 29.2717 74.5125 23.5217 77.521C15.8602 81.531 7.93616 85.6746 -6.41339 80.5702C-12.4459 78.4229 -18.3779 75.5937 -24.6575 72.5982C-43.5966 63.5657 -67.1674 52.3249 -110.43 52.3249V57.9284C-68.0369 57.9284 -45.8829 68.4941 -26.3369 77.8165C-19.9582 80.8578 -13.9338 83.7319 -7.70447 85.9481C8.23267 91.6195 17.3221 86.8652 25.3396 82.6691C30.6215 79.9056 35.192 77.5131 41.0511 78.7128C62.6161 86.8937 72.9847 87.7704 78.0148 81.8429C84.0257 74.7619 80.712 60.1739 75.2224 36.0043L75.0111 35.0751C73.1554 26.9029 73.3488 20.7282 75.5397 18.1332C77.0851 16.3033 79.3121 16.7726 80.5015 17.217C92.651 21.7513 99.7282 31.8006 107.22 42.4406C110.765 47.474 114.429 52.678 118.698 57.3239C123.994 63.0917 130.52 57.1314 135.764 52.3442C137.679 50.5943 141.235 47.3241 142.245 47.6491L142.578 47.9215C144.936 49.4461 146.562 53.6258 148.134 57.6687C150.004 62.4744 151.938 67.4452 155.616 68.8364C157.674 69.618 159.966 69.1297 162.423 67.394L162.559 67.29C182.625 50.721 195.036 41.4577 199.546 39.6813C198.578 42.5017 195.934 47.6905 193.723 52.0298C186.432 66.3397 177.358 84.1474 181.091 95.7377C182.495 100.096 185.53 103.083 190.111 104.615C194.73 106.112 202.801 107.203 211.289 107.203Z" fill="#141326"/>
<path d="M212.382 109.971C224.732 109.972 237.477 107.432 241.834 100.719C243.389 98.3229 244.69 94.2942 242.065 88.7081C239.418 83.0772 239.676 76.3378 242.753 70.6806C245.91 64.8777 257.036 51.9337 292.114 57.0252C300.823 58.2903 310.693 59.7242 322.737 62.8957C323.28 63.0392 323.825 63.1966 324.373 63.3609C337.163 67.1981 345.307 60.1104 351.854 54.4172C352.864 53.5395 353.85 52.6802 354.828 51.8869C360.324 47.4193 364.75 44.9591 371.7 54.0407C372.593 55.2085 373.521 56.5744 374.708 58.4688C376.148 60.7595 377.534 63.3217 378.876 65.7983C383.207 73.7955 387.684 82.0651 395.431 84.8372C397.016 85.4052 398.913 85.9273 400.999 85.5312C404.683 84.8242 408.362 83.5941 412.257 82.2917C416.432 80.8951 420.75 79.4517 425.261 78.6209C431.585 77.4739 437.957 76.1835 444.703 74.8176C456.886 72.3508 469.483 69.8007 482.357 68.0166C544.627 59.2163 602.69 55.8378 606.995 57.187C606.469 57.0217 605.669 56.1627 605.623 54.8448L610.221 54.6018L609.37 52.4973C608.608 51.7059 607.024 50.0577 567.648 53.0731C551.784 54.2879 519.539 57.1213 481.832 62.4492C468.845 64.2484 456.188 66.8116 443.948 69.2894C437.221 70.6519 430.869 71.9379 424.578 73.0794C419.794 73.9593 415.342 75.4488 411.037 76.8881C407.27 78.1478 403.713 79.3374 400.283 79.9951C399.101 80.2239 397.878 79.8725 396.729 79.461C390.599 77.2667 386.771 70.1987 382.719 62.7138C381.335 60.156 379.903 57.5107 378.366 55.067C377.086 53.0247 376.068 51.5286 375.068 50.2208C365.698 37.9718 358.387 42.2542 352.271 47.2265C351.256 48.0517 350.229 48.9436 349.179 49.8564C342.799 55.403 336.203 61.1389 325.474 57.919C324.884 57.7417 324.296 57.5733 323.709 57.419C311.454 54.1903 301.469 52.7403 292.658 51.4609C256.405 46.188 243.422 59.3026 238.915 67.5865C234.918 74.9355 234.594 84.0951 238.07 91.4903C239.516 94.5689 238.911 96.1823 238.222 97.2439C232.854 105.514 204.021 105.964 191.572 101.504C186.576 99.7141 184.555 96.0925 185.021 89.7612C185.731 80.3588 192.161 68.0672 197.328 58.1908C202.89 47.5593 205.953 41.703 203.219 38.2631C200.701 35.0948 196.377 34.9415 160.617 60.6926C158.846 61.9666 158.004 61.6698 157.727 61.5715C155.937 60.94 154.311 57.0657 152.739 53.3205C150.883 48.899 148.78 43.8875 145.322 41.3822C141.758 38.8036 137.706 42.6003 133.418 46.6225C128.471 51.2618 124.792 54.3691 122.482 52.0563C120.255 49.8073 117.984 47.1664 115.342 43.7538C114.165 42.2292 113.018 40.7046 111.884 39.1987C103.765 28.4196 96.0974 18.2379 82.5176 14.0266C79.0652 12.9539 75.8665 13.7431 73.5174 16.2493C71.3867 18.5202 69.0437 23.245 69.9752 32.8553C70.1631 34.7936 70.4131 36.561 70.7403 38.2585L71.2634 40.9695C74.7148 58.8352 77.2087 71.7431 73.6882 76.0737C71.1979 79.1403 64.8714 79.1589 53.7791 76.1328C51.9819 75.6425 50.0408 74.966 47.9857 74.2504C45.6662 73.4416 43.2684 72.6066 40.6063 71.8569C33.0831 69.7403 27.3716 72.5782 21.3248 75.5847C13.6622 79.3955 5.73743 83.3334 -8.008 78.8121C-14.784 76.5828 -21.3201 73.7405 -28.239 70.7308C-48.5067 61.9141 -71.4789 51.9217 -112.048 51.9217V57.5252C-72.2764 57.5252 -49.7035 67.3445 -29.788 76.007C-22.78 79.0549 -16.1613 81.9344 -9.20923 84.2207C6.04199 89.2388 15.4809 84.5437 23.0653 80.772C28.6484 77.9955 33.4663 75.5996 39.5689 77.3157C42.116 78.0326 44.4559 78.8479 46.7189 79.6371C48.8398 80.3757 50.8438 81.0741 52.7722 81.6004C65.9117 85.1847 73.1443 84.7097 76.9607 80.0157C82.2732 73.4786 79.816 60.759 75.7444 39.6864L75.2213 36.9776C74.9344 35.4881 74.7134 33.9253 74.546 32.1981C74.0029 26.5892 74.714 22.4215 76.5499 20.4634C78.1349 18.7735 80.2576 19.1063 81.3814 19.4565C93.6317 23.2553 100.517 32.3982 108.491 42.9848C109.638 44.5072 110.799 46.0482 111.99 47.5924C114.765 51.1789 117.168 53.9686 119.552 56.3763C124.874 61.7042 131.169 55.8027 136.226 51.0607C137.981 49.4157 142.093 45.5457 142.969 46.1971C145.285 47.8749 146.99 51.9386 148.64 55.8687C150.75 60.8966 152.743 65.6465 156.446 66.9533C158.457 67.6615 160.648 67.1777 162.96 65.5141C187.368 47.9384 196.415 43.078 199.439 42.5088C198.705 45.1244 195.826 50.6296 193.445 55.1803C188.012 65.5665 181.249 78.4931 180.437 89.2548C179.775 98.2446 183.176 104.336 190.272 106.879C195.527 108.762 203.861 109.971 212.382 109.971Z" fill="url(#paint0_linear_15_13534)"/>
<path d="M213.893 112.742C225.419 112.743 236.99 110.353 241.512 104.006C243.194 101.645 244.724 97.6345 242.463 91.9302C240.46 86.8804 239.879 78.7729 244.255 71.1622C248.379 63.988 259.971 52.5293 291.261 56.3652C294.291 56.7362 297.206 57.0109 300.292 57.2998C306.797 57.9104 313.524 58.5419 321.849 60.1695C322.383 60.2734 322.918 60.4005 323.453 60.5393C336.094 63.8106 344.248 58.0122 350.8 53.3508C351.798 52.6416 352.774 51.9467 353.741 51.302C359.839 47.2338 364.349 45.1896 371.249 53.4874C372.279 54.7175 373.312 56.1021 374.413 57.725C376.292 60.4787 377.971 63.7653 379.593 66.9435C383.387 74.3737 387.311 82.0555 394.431 84.8595C396.561 85.6967 398.389 85.8882 400.182 85.4581C403.357 84.6974 406.518 83.4989 409.865 82.2294C414.487 80.4772 419.266 78.6659 424.366 77.9435C433.159 76.7384 441.952 74.8582 451.262 72.8665C461.294 70.7215 471.668 68.5019 482.324 67.1262C547.348 58.7295 604.773 55.5535 608.977 56.8142C608.43 56.6511 607.602 55.7767 607.562 54.4218L612.163 54.2204L611.332 52.1235C610.507 51.2502 609.12 49.7933 569.428 52.6674C553.466 53.8232 520.86 56.5155 481.839 61.5531C471.026 62.9496 460.574 65.1856 450.466 67.3481C441.228 69.3237 432.502 71.1896 423.843 72.376C418.308 73.1595 413.32 75.0507 408.496 76.8797C405.272 78.1021 402.225 79.2567 399.294 79.9595C398.297 80.1991 397.203 80.0603 395.848 79.5272C390.331 77.3547 387.014 70.8603 383.503 63.985C381.798 60.6469 380.035 57.1939 377.958 54.1503C376.758 52.3817 375.619 50.8561 374.479 49.4946C365.384 38.5534 358.432 41.7809 351.528 46.3876C350.526 47.0563 349.513 47.7763 348.479 48.512C342.004 53.1162 335.308 57.8726 324.412 55.0579C323.801 54.8992 323.189 54.7548 322.578 54.6354C314.066 52.9717 307.244 52.3314 300.646 51.712C297.587 51.4253 294.698 51.1538 291.722 50.7894C258.097 46.6732 245.187 59.7693 240.484 67.9482C235.868 75.9748 235.039 86.0984 238.317 94.3658C239.575 97.5386 238.827 99.2218 238.035 100.333C232.117 108.641 204.11 108.562 191.821 103.799C186.872 101.882 184.798 98.2368 185.096 91.9787C185.532 82.8358 191.532 70.7806 196.353 61.0935C201.735 50.2803 204.983 43.753 202.042 40.0255C199.51 36.8145 194.897 36.1524 161.199 58.7822C159.613 59.8492 158.826 59.5647 158.567 59.474C156.796 58.8391 155.145 55.1072 153.547 51.4976C151.587 47.0695 149.367 42.0492 145.723 39.6656C142.089 37.2895 138.089 41.1627 133.856 45.2691C129.206 49.7793 125.469 53.0593 123.201 50.9689C120.98 48.9222 118.681 46.4214 115.964 43.0978C115.091 42.0252 114.234 40.9604 113.391 39.9108C104.622 29.0101 97.0498 19.5957 83.1785 16.1985C79.8144 15.3765 76.6891 16.2829 74.3778 18.7541C72.2822 20.9923 69.8924 25.5879 70.4103 34.7637C70.4947 36.2542 70.6089 38.0053 70.9067 39.9326L71.5072 43.796C73.9382 59.395 75.6948 70.6646 72.4961 74.4843C70.0489 77.4064 63.619 77.4153 52.2615 74.5159C50.4231 74.0421 48.4451 73.3876 46.3503 72.6948C44.0587 71.9376 41.6897 71.1538 39.0807 70.4544C31.4893 68.4165 25.6653 71.1013 19.4998 73.9413C11.8003 77.4883 3.83856 81.1548 -9.5976 77.0572C-17.1281 74.7611 -24.2571 71.9309 -31.8055 68.9355C-52.3737 60.772 -75.6847 51.5195 -113.665 51.5195V57.123C-76.4166 57.123 -53.4742 66.2289 -33.2324 74.2631C-25.6058 77.2902 -18.4028 80.1491 -10.7161 82.4923C4.12079 87.0145 13.1578 82.8545 21.1286 79.1826C26.8734 76.5364 31.8334 74.2511 38.0906 75.9267C40.5908 76.5977 42.905 77.3625 45.1426 78.1024C47.3032 78.817 49.343 79.4911 51.312 79.999C64.8505 83.4563 71.9224 83.0185 75.7188 78.4842C80.6761 72.5656 78.9266 61.3441 76.0291 42.7518L75.4304 38.8973C75.1785 37.2687 75.078 35.7112 75.0025 34.3806C74.6995 29.0047 75.5554 24.9508 77.4138 22.9656C78.9645 21.3076 80.911 21.3569 82.2704 21.6929C94.7525 24.7485 101.526 33.1704 110.101 43.8313C110.951 44.8885 111.814 45.9611 112.696 47.0467C115.572 50.5643 118.026 53.2282 120.422 55.4368C125.721 60.3235 131.822 54.4058 136.724 49.6528C138.626 47.8087 142.586 43.9681 143.543 44.602C145.969 46.1889 147.761 50.2396 149.495 54.1554C151.634 58.9897 153.654 63.5556 157.266 64.8492C159.184 65.5366 161.254 65.1447 163.423 63.6902C188.878 46.594 196.354 43.8141 198.521 44.0066C198.243 46.4812 194.903 53.1912 192.416 58.1907C187.331 68.4072 181.002 81.1227 180.5 91.6555C180.083 100.417 183.514 106.463 190.425 109.139C195.992 111.296 204.93 112.742 213.893 112.742Z" fill="url(#paint1_linear_15_13534)"/>
<path d="M215.002 115.405C225.829 115.405 236.543 113.191 241.152 107.307C242.973 104.983 244.745 100.989 242.85 95.1653C241.003 89.4884 240.707 79.8026 245.955 71.186C251.177 62.611 263.126 52.9656 290.408 55.7029C294.624 56.1264 298.522 56.2031 302.648 56.2841C308.13 56.3902 313.799 56.5018 320.96 57.4332C321.487 57.5021 322.013 57.6017 322.54 57.7155C335.061 60.4461 343.233 55.903 349.798 52.252C350.759 51.7191 351.699 51.1948 352.632 50.7056L352.744 50.6465C358.781 47.4759 363.549 44.9719 370.808 52.9381C371.996 54.2438 373.081 55.567 374.123 56.982C376.322 59.9686 378.129 63.7937 379.877 67.494C383.247 74.6275 386.733 82.003 393.432 84.8803C395.477 85.757 397.472 85.9245 399.364 85.3816C402.2 84.5674 405.02 83.3569 408.006 82.0742C412.899 79.974 417.959 77.8015 423.468 77.263C433.186 76.312 442.739 74.1373 452.853 71.8334C462.326 69.6763 472.121 67.4457 482.29 66.2375C548.746 58.3379 606.891 55.2887 610.96 56.44C610.391 56.2779 609.534 55.3895 609.503 53.9951L614.104 53.8418L613.294 51.7483C612.465 50.8586 611.21 49.5135 571.203 52.2321C555.099 53.3266 522.075 55.8777 481.843 60.6604C471.473 61.8927 461.577 64.1461 452.007 66.3253C442.015 68.6005 432.576 70.7502 423.1 71.6771C416.992 72.2748 411.405 74.6736 406.475 76.7904C403.61 78.0205 400.903 79.1829 398.307 79.9272C397.271 80.2271 396.178 80.1155 394.963 79.5966C389.872 77.4099 386.955 71.2362 383.868 64.7001C382.001 60.7502 380.071 56.6659 377.551 53.2425C376.399 51.6774 375.202 50.2173 373.891 48.7771C364.439 38.4039 357.256 42.1765 350.921 45.5015L350.809 45.5597C349.847 46.0653 348.876 46.6048 347.886 47.1554C341.284 50.8272 334.458 54.6239 323.349 52.1998C322.649 52.0477 322.028 51.9371 321.449 51.8626C314.082 50.9027 308.307 50.7899 302.722 50.6806C298.674 50.6018 294.851 50.5273 290.788 50.1192C261.407 47.1576 248.175 58.1316 242.257 67.8491C235.884 78.3131 236.288 90.2163 238.571 97.2294C239.406 99.796 239.175 101.711 237.82 103.439C231.334 111.722 204.162 111.133 192.071 106.098C187.172 104.057 185.044 100.386 185.168 94.1924C185.348 85.2913 190.934 73.4605 195.423 63.9541C200.586 53.0174 203.997 45.7929 200.835 41.7402C197.756 37.7915 190.62 39.027 161.79 56.8719C159.019 58.5868 157.717 56.8817 154.366 49.6793C152.3 45.2401 149.959 40.209 146.123 37.9546C142.419 35.7755 138.471 39.7308 134.294 43.9225C130.56 47.6667 126.33 51.9119 123.906 49.8796C121.659 47.9938 119.333 45.632 116.586 42.4462L115.395 41.0563C105.776 29.8066 98.1779 20.9219 83.8317 18.3784C80.571 17.795 77.5251 18.8205 75.2488 21.2525C73.1864 23.4556 70.7491 27.9166 70.8517 36.6578L70.8553 36.9818C70.8705 38.3541 70.8885 39.9106 71.0775 41.5916C71.2491 43.1304 71.4191 44.6177 71.5827 46.0526C73.2001 60.2102 74.2682 69.5635 71.3553 72.9212C68.9279 75.7185 62.5698 75.7119 50.744 72.8994C48.8649 72.4452 46.8484 71.8137 44.7131 71.145C42.4503 70.4368 40.111 69.7035 37.555 69.0534C29.889 67.1031 23.9516 69.6356 17.6647 72.316C9.93127 75.6114 1.9325 79.0161 -11.1826 75.3061C-19.4691 72.9594 -27.1755 70.1687 -35.3342 67.2137C-57.1898 59.3009 -79.7888 51.1178 -115.282 51.1178V56.7213C-80.4586 56.7213 -58.1858 64.7862 -36.6469 72.5852C-28.4189 75.5643 -20.6477 78.378 -12.2255 80.7629C2.19318 84.8462 11.2203 80.9981 19.1859 77.6043C25.096 75.0839 30.199 72.908 36.6136 74.5387C39.0662 75.1626 41.3542 75.8794 43.5659 76.5722C45.7649 77.2605 47.8426 77.9119 49.8557 78.3977C64.0271 81.7664 70.7089 81.3821 74.5198 76.9903C79.1534 71.6494 78.0197 61.724 76.1426 45.2811C75.979 43.8507 75.8101 42.3687 75.6382 40.8343C75.4871 39.4924 75.4728 38.177 75.4583 36.9053L75.4547 36.5769C75.3926 31.351 76.3716 27.5083 78.2848 25.4638C79.8806 23.7587 81.8189 23.6876 83.1682 23.9228C96.0532 26.2081 102.829 34.1307 112.206 45.0969L113.404 46.4979C116.337 49.8983 118.843 52.4374 121.294 54.4939C126.576 58.9208 132.479 53.0034 137.221 48.2469C139.264 46.198 143.065 42.3817 144.121 43.0012C146.662 44.4939 148.542 48.5348 150.36 52.4418C153.073 58.2709 156.793 66.2514 163.876 61.8672C190.181 45.5852 196.115 44.9515 197.445 45.5994C197.745 47.7905 193.958 55.8105 191.432 61.1612C186.684 71.2168 180.776 83.7319 180.567 94.0546C180.392 102.724 183.761 108.559 190.58 111.399C196.242 113.758 205.664 115.404 215.002 115.405Z" fill="url(#paint2_linear_15_13534)"/>
<path d="M216.148 118.186C226.211 118.186 236.014 116.113 240.749 110.621C243.579 107.339 244.437 103.117 243.23 98.4113C241.493 91.6454 241.664 80.3398 247.861 70.745C253.183 62.5028 264.738 53.0818 289.555 55.041C294.404 55.4228 298.681 55.156 303.209 54.8712C308.195 54.5593 313.352 54.2363 320.068 54.6895C320.531 54.7212 321.041 54.7869 321.624 54.8899C334.115 57.1095 341.983 53.9256 348.927 51.1185C349.798 50.7661 350.654 50.4203 351.502 50.092C351.938 49.9235 352.373 49.7506 352.81 49.5775C358.482 47.3272 363.383 45.3835 370.369 52.3858C371.727 53.7461 372.828 54.9698 373.833 56.234C376.298 59.3325 378.142 63.6061 379.924 67.7387C382.934 74.7157 386.046 81.9314 392.437 84.9018C394.467 85.843 396.521 85.9767 398.542 85.3035C401.141 84.4335 403.724 83.1914 406.459 81.8747C411.525 79.4384 416.763 76.9179 422.577 76.5797C432.942 75.9767 442.955 73.5482 453.557 70.9772C462.758 68.7456 472.271 66.4375 482.257 65.3484C548.971 58.0693 608.555 54.8899 612.942 56.0665C612.349 55.9078 611.462 55.0017 611.442 53.5647L616.044 53.4705L615.256 51.3745C614.43 50.4716 613.297 49.2327 572.978 51.7993C556.733 52.8346 523.292 55.2445 481.845 59.7668C471.614 60.8831 461.977 63.2208 452.657 65.4809C442.229 68.0102 432.38 70.3992 422.358 70.9826C415.782 71.3656 409.931 74.1807 404.768 76.6639C402.152 77.9224 399.682 79.111 397.323 79.9001C396.252 80.2557 395.191 80.1814 394.078 79.666C389.313 77.4518 386.732 71.4687 384 65.1329C382.066 60.6501 380.066 56.0128 377.14 52.3356C376.012 50.9172 374.789 49.5579 373.294 48.0595C364.358 39.1037 357.466 41.8387 351.384 44.2498C350.959 44.4183 350.535 44.587 350.111 44.7511C349.242 45.0861 348.367 45.4407 347.476 45.8007C341.02 48.4119 333.702 51.3726 322.285 49.3445C321.566 49.2175 320.927 49.1365 320.326 49.0949C313.366 48.6243 307.843 48.9691 302.972 49.2754C298.581 49.55 294.435 49.8095 289.852 49.4482C263.026 47.3446 250.247 57.9815 244.241 67.2821C236.94 78.5889 236.766 92.0177 238.836 100.083C239.513 102.721 239.112 104.781 237.574 106.564C230.272 115.034 204.202 113.695 192.319 108.395C187.471 106.233 185.288 102.534 185.238 96.4019C185.169 87.7186 190.356 76.0922 194.524 66.7502C199.431 55.7511 202.976 47.8042 199.582 43.3938C196.49 39.3727 189.192 39.9046 162.389 54.9598C159.84 56.3858 158.497 54.6346 155.193 47.8655C153.019 43.4121 150.555 38.3636 146.52 36.248C142.739 34.2616 138.846 38.3067 134.726 42.586C131.107 46.3431 127.009 50.5974 124.605 48.7893C122.299 47.0479 119.95 44.8274 117.209 41.8002C106.892 30.4049 99.4373 22.1703 84.4774 20.5626C81.2911 20.2222 78.4052 21.3189 76.1325 23.7398C74.0997 25.9047 71.6105 30.2298 71.3003 38.5355L71.2689 39.283C71.2167 40.4584 71.1583 41.7904 71.2509 43.2285C71.3516 44.7925 71.4523 46.2941 71.5485 47.7353C72.3854 60.2283 72.9382 68.4815 70.2584 71.4343C67.8292 74.1113 61.7365 74.0686 49.2318 71.2833C47.2781 70.8487 45.1996 70.2327 42.9988 69.5804C40.789 68.9259 38.5046 68.2485 36.0278 67.6531C28.2899 65.7904 22.2321 68.1762 15.8193 70.7011C8.05341 73.7589 0.026001 76.9218 -12.7656 73.5531C-21.7982 71.1749 -30.4442 68.3216 -38.8052 65.5638C-60.925 58.2638 -83.7991 50.7156 -116.899 50.7156V56.3191C-84.4115 56.3191 -61.8386 63.7679 -40.009 70.9716C-31.5922 73.7493 -22.8878 76.6222 -13.7383 79.0301C0.262268 82.7173 9.27954 79.1669 17.2352 76.0336C23.319 73.6389 28.5712 71.5716 35.1359 73.1497C37.5129 73.7221 39.7479 74.3842 41.91 75.0245C44.1773 75.6976 46.3199 76.3313 48.4038 76.7953C63.05 80.0578 69.5769 79.7415 73.3475 75.5892C77.7106 70.7813 77.1182 61.9349 76.1364 47.2804C76.04 45.8446 75.9404 44.3494 75.8396 42.7922C75.7714 41.7218 75.8171 40.6832 75.8648 39.5834L75.8981 38.791C76.086 33.7785 77.2151 30.0334 79.1642 27.9573C80.8131 26.2017 82.7441 26.0003 84.0729 26.1448C96.894 27.5227 103.192 33.8835 114.117 45.951C117.067 49.2113 119.63 51.6269 122.178 53.5507C127.433 57.53 133.134 51.6048 137.714 46.8493C139.897 44.5826 143.546 40.785 144.7 41.3946C147.362 42.79 149.331 46.8252 151.235 50.7281C154.08 56.5572 157.618 63.8057 164.319 60.0483C192.075 44.4581 195.766 46.6337 196.224 47.2247C197.346 48.6836 192.707 59.0799 190.479 64.0759C185.827 74.5026 180.554 86.3205 180.635 96.4573C180.703 104.912 184.101 110.699 190.736 113.658C196.62 116.281 206.503 118.186 216.148 118.186Z" fill="url(#paint3_linear_15_13534)"/>
<path d="M216.817 120.982C226.385 120.982 235.536 118.961 240.299 113.951C243.368 110.721 244.509 106.472 243.595 101.664C242.052 93.5337 242.793 80.3249 249.963 69.8609C257.598 58.7194 270.996 53.3687 288.702 54.3778C294.684 54.7182 299.499 54.0867 305.071 53.3545C309.082 52.827 313.628 52.2293 319.285 51.9373C319.662 51.912 320.119 51.98 320.6 52.0467L320.705 52.0609C333.406 53.8042 341.404 51.7512 348.46 49.9367C349.098 49.7726 349.729 49.6105 350.357 49.4529C351.227 49.2351 352.098 48.9832 352.973 48.7306C358.5 47.1305 363.271 45.7506 369.933 51.8291C371.015 52.8142 372.29 54.019 373.545 55.4813C376.232 58.6105 377.965 63.0592 379.8 67.7698C382.496 74.689 385.284 81.8433 391.444 84.9197C393.474 85.9355 395.585 86.036 397.72 85.2196C400.139 84.2959 402.546 83.0099 405.095 81.6474C410.275 78.8785 415.631 76.0154 421.688 75.8938C432.565 75.6726 442.891 73.0153 453.822 70.2015C462.892 67.8659 472.271 65.4517 482.223 64.458C550.351 57.6582 610.695 54.6245 614.926 55.6925C614.307 55.536 613.388 54.6122 613.382 53.1293L617.985 53.1031L617.218 51.0017C616.357 50.0419 615.383 48.9506 574.752 51.3696C558.365 52.3449 524.506 54.6157 481.848 58.8741C471.604 59.8962 462.08 62.3478 452.87 64.7184C442.161 67.4753 432.046 70.0789 421.611 70.2903C414.629 70.4315 408.58 73.6644 403.244 76.5167C400.815 77.8147 398.52 79.0416 396.341 79.8734C395.245 80.2937 394.213 80.2466 393.192 79.7365C388.679 77.4831 386.386 71.5984 383.96 65.3688C382.026 60.4065 380.027 55.2749 376.726 51.4333C375.286 49.7545 373.814 48.3667 372.692 47.3444C364.303 39.692 357.721 41.5996 351.909 43.2785C351.078 43.5193 350.253 43.7579 349.427 43.9658C348.793 44.1245 348.154 44.2888 347.508 44.4551C340.795 46.18 333.185 48.1367 321.22 46.4929L321.118 46.4787C320.511 46.3966 319.824 46.3004 319.089 46.3387C313.282 46.6396 308.658 47.2482 304.578 47.7843C299.195 48.4925 294.548 49.1032 288.917 48.7814C264.647 47.3816 252.42 57.527 246.428 66.2717C238.176 78.314 237.329 93.5442 239.111 102.928C239.636 105.695 239.057 107.851 237.289 109.712C229.923 117.461 205.453 116.825 192.566 110.696C187.833 108.444 185.525 104.604 185.305 98.6104C184.993 90.1198 189.589 79.1578 193.646 69.4874C198.263 58.4763 201.911 49.7788 198.273 44.9676C195.133 40.8141 187.934 40.5942 163.002 53.0457C160.662 54.2103 159.274 52.4197 156.027 46.0577C153.746 41.5847 151.158 36.514 146.916 34.5473C143.056 32.7556 139.219 36.8895 135.156 41.2607C131.65 45.0311 127.681 49.3028 125.292 47.7027C122.968 46.1408 120.597 44.0603 117.83 41.1545C107.253 30.0503 99.7731 23.2714 85.1152 22.7581C79.4379 22.5448 72.9801 27.0921 71.7573 40.3972C71.7277 40.719 71.6927 41.0442 71.6566 41.3725C71.5442 42.4035 71.4175 43.5722 71.431 44.8452C71.4464 46.2744 71.4643 47.646 71.4814 48.9592C71.627 60.0458 71.7231 67.3698 69.2401 69.9658C66.4926 72.8409 58.966 71.9841 47.7127 69.6694C45.7079 69.2569 43.5825 68.6624 41.3331 68.0342C39.1611 67.428 36.9162 66.8007 34.5005 66.2523C26.6879 64.4859 20.5079 66.7241 13.9656 69.1002C6.17188 71.9294 -1.88794 74.8538 -14.3477 71.8046C-24.0969 69.4175 -33.2831 66.6597 -42.1656 63.9913C-65.5864 56.9584 -87.708 50.3151 -118.512 50.3151C-118.514 50.3151 -118.515 50.3151 -118.517 50.3151V55.9186C-88.27 55.9174 -66.4109 62.4819 -43.269 69.4317C-34.3379 72.1143 -25.103 74.8876 -15.256 77.2987C-1.66791 80.6203 7.33502 77.3534 15.2806 74.4695C21.5361 72.1996 26.9393 70.2405 33.6569 71.7619C35.9791 72.2884 38.1773 72.9022 40.3033 73.4954C42.6202 74.1433 44.8085 74.754 46.9454 75.1939C60.4489 77.9716 68.0646 78.5813 72.2396 74.2167C76.36 69.908 76.2556 61.9885 76.083 48.8695C76.0659 47.5616 76.0479 46.1969 76.0336 44.7741C76.0245 43.905 76.1191 43.0317 76.2198 42.107C76.2595 41.7404 76.299 41.3791 76.3312 41.0214C77.0864 32.8086 80.2257 28.1792 84.9827 28.3597C97.6743 28.804 104.11 34.1515 114.824 45.399C117.838 48.5629 120.457 50.8548 123.068 52.608C128.296 56.1189 133.559 50.4573 138.204 45.459C140.521 42.9658 144.027 39.2054 145.278 39.7832C148.068 41.0768 150.126 45.112 152.117 49.0136C154.929 54.5274 158.437 61.3862 164.749 58.2289C189.182 46.0292 193.964 47.5459 194.886 48.763C196.354 50.7045 192.257 60.4747 189.546 66.9395C185.231 77.2283 180.339 88.8917 180.707 98.861C181.01 107.107 184.436 112.845 190.89 115.915C197.321 118.973 207.276 120.982 216.817 120.982Z" fill="url(#paint4_linear_15_13534)"/>
<path d="M217.681 123.761C226.54 123.762 234.963 121.901 239.793 117.297C243.128 114.119 244.565 109.84 243.949 104.922C242.907 96.6002 243.587 77.5284 253.622 64.9182C261.284 55.2892 272.732 51.5134 287.641 53.6947C293.627 54.5692 298.386 53.2658 303.424 51.8879C307.526 50.764 312.176 49.491 318.273 49.1825C318.737 49.1572 319.234 49.1737 319.788 49.2284C333.892 50.6041 342.38 49.5962 349.2 48.7862C350.566 48.6244 351.921 48.3495 353.233 48.0836C358.364 47.0407 363.208 46.0612 369.503 51.2675C370.727 52.2788 372.029 53.3973 373.259 54.7259C376.134 57.8286 377.797 62.6005 379.558 67.6535C381.972 74.579 384.469 81.7422 390.451 84.938C392.49 86.0281 394.655 86.0925 396.892 85.1362C399.17 84.1577 401.439 82.8202 403.842 81.4052C409.021 78.3538 414.374 75.2009 420.517 75.2009C420.612 75.2009 420.707 75.2009 420.803 75.2031C432.135 75.376 442.687 72.5097 453.87 69.466C462.88 67.0134 472.196 64.4785 482.191 63.5692C552.959 57.128 612.728 54.3262 616.913 55.3154C616.239 55.1568 615.311 54.1543 615.323 52.6866L619.926 52.7391L619.181 50.6279C618.338 49.6649 617.466 48.671 576.527 50.9398C559.996 51.8558 525.715 53.989 481.848 57.9804C471.519 58.9206 462.036 61.5011 452.866 63.9966C441.954 66.9668 431.613 69.785 420.864 69.5991C413.503 69.517 407.31 73.1375 401.837 76.3616C399.554 77.7067 397.398 78.9762 395.362 79.8507C394.251 80.3257 393.25 80.3137 392.303 79.8068C387.992 77.5041 385.954 71.6554 383.795 65.4641C381.913 60.0607 379.965 54.4748 376.313 50.5325C374.887 48.9927 373.439 47.7472 372.089 46.6309C364.269 40.1639 358.005 41.4367 352.476 42.5552C351.184 42.8178 349.964 43.0652 348.754 43.2085C342.115 43.9976 333.855 44.9783 320.154 43.6418C319.414 43.5707 318.738 43.552 318.084 43.5827C311.57 43.912 306.706 45.2441 302.414 46.4205C297.573 47.7437 293.395 48.8951 288.189 48.13C271.781 45.7321 259.032 50.0661 250.316 61.018C239.048 75.1779 238.152 95.8081 239.399 105.767C239.765 108.686 238.988 110.948 236.956 112.885C229.035 120.432 205.373 119.346 192.813 112.995C188.129 110.627 185.763 106.756 185.368 100.813C184.815 92.4955 189.045 81.6899 192.776 72.1574C197.251 60.7247 200.785 51.6956 196.892 46.4369C193.042 41.2373 183.405 42.5954 163.629 51.1277C161.337 52.1204 159.812 49.7914 156.869 44.2524C154.478 39.7554 151.769 34.6585 147.313 32.8494C143.375 31.2626 139.592 35.4739 135.583 39.9437C132.192 43.7261 128.344 48.0142 125.973 46.6145C123.634 45.2387 121.245 43.2982 118.451 40.5107C107.226 29.2993 99.8279 24.4246 85.7471 24.9609C78.8901 25.2368 73.8359 31.6961 72.2274 42.241C72.1725 42.5978 72.1069 42.9569 72.0404 43.3191C71.8724 44.2384 71.6816 45.2804 71.6232 46.4305L71.4623 49.6668C70.957 60.0072 70.6512 66.2488 68.3138 68.5459C65.6608 71.1517 58.7813 70.4228 46.1959 68.0512C44.128 67.6628 41.9488 67.0904 39.6418 66.484C37.5166 65.9268 35.3184 65.35 32.9728 64.85C25.0837 63.1711 18.7816 65.2747 12.1063 67.5041C4.28638 70.1134 -3.79858 72.8121 -15.9274 70.0543C-26.3453 67.6827 -36.0208 65.045 -45.3771 62.4938C-69.1107 56.0234 -91.5271 49.9111 -120.133 49.9111V55.5146C-92.0367 55.5146 -69.8613 61.5602 -46.3831 67.9617C-36.9872 70.5239 -27.2714 73.1724 -16.7725 75.5614C-3.60339 78.5603 5.3905 75.557 13.3236 72.9073C19.7554 70.7622 25.3068 68.9093 32.1799 70.3704C34.4365 70.8508 36.5897 71.4155 38.6708 71.9617C41.0469 72.5855 43.291 73.1743 45.4918 73.589C60.2925 76.3778 67.1368 76.8996 71.2032 72.9073C75.1257 69.055 75.4565 62.2868 76.057 49.9994L76.217 46.7773C76.2529 46.0671 76.3896 45.3238 76.5334 44.5369C76.6116 44.1089 76.6882 43.6864 76.7528 43.2641C77.9556 35.3766 81.2894 30.7471 85.8989 30.5619C98.4251 30.0452 104.541 33.8672 115.532 44.8422C118.614 47.9186 121.294 50.0857 123.969 51.6596C129.156 54.7129 134.222 49.0623 138.693 44.0751C141.001 41.5009 144.492 37.6069 145.857 38.1663C148.781 39.3527 150.928 43.3912 153.005 47.2972C155.77 52.5002 159.213 58.9826 165.166 56.4094C186.874 47.0443 192.217 48.4934 193.473 50.1875C195.306 52.6653 191.599 62.1365 188.621 69.7463C184.64 79.9181 180.128 91.4459 180.78 101.265C181.314 109.308 184.769 114.996 191.047 118.17C197.642 121.505 207.926 123.761 217.681 123.761Z" fill="url(#paint5_linear_15_13534)"/>
<path d="M218.126 126.542C226.576 126.542 234.482 124.752 239.229 120.661C242.856 117.535 244.606 113.22 244.292 108.182C243.453 94.7748 246.021 74.9511 256.017 63.2034C263.276 54.6711 273.62 51.2521 286.766 53.0315C292.983 53.8731 297.652 52.1264 302.6 50.2778C306.609 48.7785 311.154 47.0798 317.37 46.4189C317.835 46.3696 318.327 46.362 318.871 46.3926C323.812 46.6783 328.073 47.1028 331.831 47.4773C338.305 48.122 343.415 48.6318 348.279 48.0749C349.487 47.9359 350.697 47.7313 351.867 47.5342C357.303 46.6148 362.436 45.7469 369.076 50.7026C370.345 51.6491 371.691 52.6801 372.974 53.9651C376.013 57.0077 377.577 62.0726 379.233 67.4356C381.389 74.4148 383.619 81.6327 389.463 84.9555C391.518 86.1255 393.741 86.1562 396.064 85.0475C398.227 84.0175 400.386 82.6256 402.671 81.1525C407.984 77.7269 413.475 74.1951 419.922 74.5114C431.652 75.1034 442.407 72.0204 453.797 68.7537C462.786 66.1763 472.081 63.5102 482.161 62.6784C554.372 56.718 614.883 54.0585 618.903 54.9406C618.194 54.7851 617.23 53.7586 617.265 52.2352L621.866 52.3895L621.147 50.2587C620.337 49.3131 620.067 48.9879 608.081 49.2878C600.687 49.4683 590.391 49.893 578.303 50.5147C561.627 51.3728 526.921 53.3667 481.85 57.0879C471.393 57.9513 461.911 60.6699 452.742 63.2988C441.667 66.475 431.199 69.4671 420.115 68.9121C412.413 68.5192 406.099 72.6004 400.517 76.2011C398.352 77.5964 396.306 78.9153 394.388 79.8292C393.25 80.37 392.307 80.3852 391.411 79.8795C387.267 77.5221 385.458 71.6646 383.543 65.4634C381.746 59.6466 379.889 53.6326 375.898 49.6368C374.388 48.1254 372.888 46.9741 371.482 45.9245C363.435 39.9193 356.954 41.016 351.234 41.9834C350.062 42.1815 348.955 42.3696 347.848 42.4957C343.391 43.0067 338.455 42.5153 332.207 41.8927C328.411 41.515 324.11 41.0861 319.091 40.796C318.333 40.7533 317.642 40.7653 316.968 40.8377C310.269 41.5501 305.477 43.3417 301.249 44.9222C296.383 46.7411 292.541 48.1804 287.277 47.4636C272.711 45.4848 261.112 49.4259 252.819 59.1718C241.676 72.2713 238.788 93.9893 239.702 108.607C239.893 111.66 238.868 114.106 236.57 116.087C228.042 123.437 205.136 121.768 193.06 115.298C188.425 112.814 186.001 108.912 185.43 103.018C184.649 94.9393 187.976 83.1423 190.911 72.734C194.781 59.0087 198.124 47.1548 193.183 41.8816C188.931 37.3419 180.284 39.5132 164.307 49.1453C161.926 49.164 160.226 46.4365 157.717 42.0501C155.239 37.7215 152.432 32.8152 147.711 31.1604C143.69 29.7474 139.961 34.0706 136.012 38.6399C132.733 42.4344 129.012 46.7269 126.644 45.5338C124.299 44.3486 121.894 42.5494 119.074 39.869C106.916 28.3106 99.8883 25.5756 86.3776 27.1779C79.8903 27.944 74.9103 34.1025 72.7131 44.0728C72.6306 44.4504 72.5298 44.8214 72.4299 45.1947C72.2095 46.0145 71.9597 46.9447 71.833 47.9933L71.6126 49.8121C70.2748 60.9053 69.5746 65.8818 66.9951 67.5869C63.9366 69.6093 56.882 68.5249 44.6774 66.4377C42.5511 66.0743 40.319 65.525 37.9554 64.9438C35.8759 64.4327 33.7255 63.904 31.4464 63.4511C23.4826 61.8664 17.051 63.8319 10.2408 65.9169C2.39935 68.3159 -5.71082 70.7969 -17.5034 68.3071C-28.5049 65.9826 -38.5947 63.4928 -48.3511 61.0839C-73.5087 54.8739 -95.2402 49.5102 -121.745 49.5102C-121.748 49.5102 -121.746 49.5102 -121.75 49.5102V55.1137C-121.748 55.1137 -121.746 55.1137 -121.745 55.1137C-95.6995 55.1137 -74.1819 60.4252 -49.2662 66.5758C-39.4776 68.9923 -29.3563 71.49 -18.2909 73.8275C-5.53357 76.5253 3.44244 73.775 11.3629 71.3507C17.9725 69.3282 23.6786 67.5815 30.7038 68.98C32.8983 69.4178 35.0057 69.9354 37.0447 70.4367C39.4766 71.0343 41.7744 71.5991 44.0372 71.9865C71.6376 76.7102 73.1418 75.7108 76.1669 50.6253L76.3855 48.8118C76.4566 48.2338 76.6254 47.6024 76.8045 46.9348C76.9312 46.4642 77.0553 45.9959 77.1597 45.5231C78.8311 37.9374 82.3525 33.2839 86.8215 32.7554C99.0339 31.3152 105.087 33.6802 116.241 44.2864C119.397 47.285 122.141 49.3263 124.878 50.7084C130.023 53.312 134.887 47.6713 139.182 42.7014C141.617 39.8855 144.949 36.0351 146.436 36.5452C149.587 37.6494 151.8 41.515 153.94 45.2536C156.664 50.0154 159.75 55.4002 165.171 54.6875L165.579 54.6328L165.946 54.4107C183.7 43.6502 188.732 44.5826 190.148 46.0952C192.768 48.8903 189.468 60.5912 186.557 70.9139C183.31 82.4243 179.954 94.3263 180.859 103.674C181.618 111.518 185.099 117.153 191.205 120.427C198.357 124.259 208.588 126.542 218.126 126.542Z" fill="url(#paint6_linear_15_13534)"/>
<path d="M218.849 129.324C226.609 129.324 233.869 127.717 238.596 124.041C242.544 120.971 244.626 116.613 244.619 111.439C244.601 98.4476 246.359 74.6817 258.34 61.4741C265.105 54.0166 274.372 50.951 285.896 52.3684C292.313 53.1598 296.878 50.9785 301.712 48.6713C305.642 46.7966 310.096 44.6702 316.46 43.6512C316.865 43.5867 317.318 43.5747 317.799 43.5615L318.048 43.5539C327.174 43.2726 333.832 44.715 339.712 45.9878C342.221 46.5317 344.592 47.045 346.893 47.3581C349.297 47.6853 351.672 47.4741 353.967 47.2694C358.694 46.8503 363.156 46.4508 368.651 50.1314C370.038 51.0616 371.392 51.9964 372.689 53.2002C375.873 56.1585 377.317 61.4929 378.846 67.1401C380.76 74.2081 382.739 81.5157 388.474 84.973C390.551 86.2239 392.823 86.2185 395.231 84.9587C397.298 83.8775 399.363 82.4295 401.549 80.8963C406.902 77.1423 412.451 73.2505 419.043 73.8162C431.146 74.8406 442.077 71.542 453.649 68.0563C462.641 65.3475 471.939 62.5469 482.13 61.7872C557.054 56.2046 616.942 53.7638 620.894 54.5628C620.145 54.4117 619.142 53.3567 619.207 51.7698L623.804 52.0477L623.114 49.8906C622.279 48.8859 622.082 48.6473 610.06 48.933C602.645 49.1091 592.278 49.5098 580.078 50.0897C563.251 50.8897 528.115 52.7481 481.849 56.1945C471.24 56.9846 461.735 59.8477 452.543 62.6166C441.332 65.9929 430.747 69.1834 419.359 68.2255C411.352 67.5567 404.924 72.0616 399.251 76.0397C397.185 77.4888 395.233 78.8579 393.413 79.8101C391.928 80.5861 391.085 80.2928 390.516 79.9514C386.508 77.5349 384.91 71.6337 383.218 65.3865C381.537 59.1765 379.798 52.7566 375.481 48.7454C373.933 47.3074 372.416 46.2578 370.871 45.2212C364.181 40.7416 358.575 41.2375 353.632 41.6806C351.447 41.8731 349.386 42.057 347.405 41.789C345.252 41.4957 342.952 40.9976 340.518 40.4701C334.723 39.2158 327.503 37.6529 317.932 37.9519L317.695 37.9585C317.141 37.9739 316.512 37.9913 315.861 38.0953C308.939 39.2028 304.206 41.4618 300.031 43.4548C295.358 45.6852 291.664 47.444 286.358 46.7929C273.492 45.207 263.022 48.752 255.249 57.3204C241.95 71.9827 239.996 97.5258 240.015 111.447C240.02 114.701 238.745 117.275 236.118 119.318C226.831 126.542 205.102 124.284 193.305 117.6C188.719 115.002 186.234 111.068 185.486 105.221C184.463 97.2195 187.471 85.3163 190.124 74.8138C193.754 60.4483 196.888 48.0416 191.594 42.3932C187.37 37.8874 179.149 39.3725 164.976 47.2132C162.813 46.956 161.111 44.3666 158.654 40.2592C156.046 35.899 153.09 30.9574 148.108 29.4735C144.008 28.2488 140.328 32.6694 136.435 37.3459C133.268 41.1514 129.674 45.4579 127.304 44.4576C124.96 43.4683 122.542 41.8056 119.696 39.2295C106.962 27.6995 99.6293 26.8895 87.0015 29.4046C80.9042 30.6183 76.0091 36.4736 73.2166 45.8914C73.1042 46.2713 72.9666 46.6379 72.8318 47.0045C72.5621 47.7378 72.2555 48.5686 72.0613 49.5294C69.9514 59.9222 68.9148 64.5868 66.4578 66.2011C63.6816 68.0256 57.845 67.1139 47.2544 65.4581C45.9633 65.2567 44.5995 65.0431 43.1584 64.8222C40.9675 64.4862 38.6794 63.9619 36.2573 63.406C34.2263 62.9408 32.1271 62.4594 29.9183 62.0499C21.8755 60.5613 15.3161 62.3934 8.37024 64.3339C0.507263 66.5295 -7.62085 68.8003 -19.0819 66.5579C-30.5364 64.3175 -40.9328 62.0028 -50.9868 59.7648C-76.6711 54.0463 -98.8531 49.1071 -123.368 49.1071V54.7106C-99.2701 54.7106 -77.2789 59.6071 -51.8155 65.2764C-41.7364 67.52 -31.3148 69.8401 -19.8117 72.0915C-7.46619 74.5071 1.49353 72.004 9.3996 69.7954C16.1891 67.8988 22.0526 66.2583 29.2261 67.5901C31.3539 67.9842 33.4137 68.4558 35.4052 68.9134C37.8983 69.4847 40.2538 70.0252 42.5831 70.382C44.0206 70.602 45.3799 70.8154 46.6684 71.0169C70.7167 74.7731 71.8323 74.0213 76.5306 50.8716C76.6259 50.4 76.8146 49.8887 77.0322 49.2967C77.2147 48.8021 77.3946 48.3052 77.5464 47.7939C79.7465 40.3735 83.3687 35.8066 87.7443 34.9343C99.7372 32.5472 105.636 33.483 116.949 43.726C120.183 46.6548 122.995 48.5691 125.796 49.7531C130.878 51.8927 135.549 46.2858 139.669 41.3346C142.091 38.4234 145.41 34.4286 147.015 34.9179C150.36 35.9137 152.684 39.8001 154.933 43.5585C157.662 48.1213 160.484 52.8383 165.322 52.8383C165.375 52.8383 165.427 52.8383 165.48 52.8373L165.962 52.8263L166.4 52.5823C182.259 43.7304 187.091 45.0392 188.56 46.6077C191.612 49.8637 188.485 62.2441 185.725 73.1676C182.788 84.7895 179.752 96.8075 180.938 106.084C181.917 113.732 185.424 119.317 191.364 122.681C198.647 126.807 209.139 129.323 218.849 129.324Z" fill="url(#paint7_linear_15_13534)"/>
<path d="M219.51 132.116C226.598 132.117 233.241 130.692 237.891 127.437C242.189 124.428 244.625 120.021 244.935 114.69L244.974 114.015C245.734 100.867 247.316 73.5103 260.531 59.7938C266.745 53.3443 274.988 50.6225 285.03 51.7059C291.633 52.4129 296.078 49.8213 300.784 47.072C304.641 44.8186 309.013 42.2641 315.545 40.8785C315.954 40.7919 316.413 40.7591 316.898 40.7252L317.138 40.7078C326.563 40.0325 333.438 42.4524 339.507 44.5888C341.682 45.3549 343.737 46.0774 345.757 46.6014C348.685 47.3621 351.581 47.1934 354.383 47.0271C358.685 46.7733 363.136 46.5139 368.231 49.5565C369.669 50.4145 371.07 51.2802 372.404 52.4305C375.718 55.2882 377.028 60.8741 378.416 66.7885C380.1 73.9681 381.842 81.3939 387.489 84.988C389.587 86.3265 391.912 86.2838 394.396 84.8666C396.38 83.7361 398.367 82.2289 400.472 80.6332C405.85 76.5553 411.412 72.3427 418.166 73.1199C430.636 74.5699 441.716 71.07 453.449 67.3697C462.461 64.5263 471.78 61.5867 482.101 60.8971C558.501 55.7914 619.105 53.4921 622.888 54.1859C622.111 54.0424 621.046 52.9296 621.152 51.2878L625.741 51.7255L625.086 49.529C624.232 48.4652 624.102 48.3021 612.039 48.5802C604.602 48.7521 594.164 49.1275 581.853 49.6671C564.872 50.4101 529.299 52.1316 481.849 55.3024C471.069 56.0227 461.525 59.0334 452.294 61.9447C440.964 65.5192 430.26 68.8965 418.603 67.5428C410.306 66.5742 403.5 71.7345 398.038 75.877C396.054 77.3819 394.18 78.8035 392.445 79.7918C390.956 80.641 390.154 80.362 389.623 80.0238C385.726 77.5428 384.325 71.5715 382.842 65.2499C381.298 58.6648 379.7 51.855 375.066 47.8582C373.452 46.4673 371.87 45.4876 370.257 44.5246C364.097 40.8483 358.817 41.1603 354.162 41.4305C351.538 41.5848 349.061 41.7292 346.716 41.1208C344.858 40.6392 342.88 39.9432 340.785 39.2055C334.679 37.0571 327.082 34.3801 316.865 35.1146L316.635 35.131C316.067 35.1715 315.425 35.2164 314.755 35.3586C307.596 36.8766 302.919 39.6094 298.792 42.0205C294.317 44.6352 290.785 46.6961 285.437 46.1247C274.12 44.8968 264.734 48.0674 257.545 55.5303C242.86 70.7725 241.187 99.714 240.383 113.621L240.344 114.294C240.141 117.776 238.589 120.486 235.598 122.58C225.85 129.403 204.993 126.743 193.552 119.903C189.014 117.191 186.469 113.226 185.542 107.423C184.272 99.471 186.857 87.9268 189.357 76.7625C192.718 61.7544 195.621 48.7928 189.982 42.744C185.848 38.3092 178.112 39.1148 165.67 45.2875C163.5 44.7075 161.7 41.817 159.637 38.5064C156.89 34.0957 153.776 29.0964 148.508 27.794C144.309 26.7631 140.695 31.2787 136.864 36.0624C133.81 39.8765 130.34 44.2006 127.958 43.3897C125.653 42.6084 123.154 41.0389 120.319 38.5927C107.516 27.5432 100.525 27.9897 87.6271 31.6451C82.0297 33.232 77.0986 38.935 73.7415 47.705C73.5977 48.0826 73.4214 48.436 73.2505 48.7896C72.9367 49.4365 72.5807 50.1685 72.3209 51.0386C69.8081 59.4461 68.3661 63.5645 66.0114 64.9927C63.5085 66.5119 58.9675 65.8125 50.7206 64.5429C48.08 64.1368 45.0872 63.6761 41.6394 63.2089C39.382 62.9024 37.0364 62.4023 34.5532 61.8736C32.5744 61.4523 30.5291 61.0165 28.3922 60.6499C20.2747 59.26 13.5806 60.9574 6.49432 62.7545C-1.3822 64.7528 -9.53003 66.8182 -20.6566 64.812C-32.3521 62.6998 -42.8942 60.5918 -53.0885 58.5539C-80.6042 53.051 -102.341 48.705 -124.98 48.705C-124.982 48.705 -124.982 48.705 -124.985 48.705V54.3085C-124.983 54.3085 -124.981 54.3085 -124.98 54.3085C-102.715 54.3085 -81.1447 58.6216 -53.8346 64.0829C-43.6226 66.1252 -33.0634 68.2363 -21.3327 70.3541C-9.38898 72.509 -0.453552 70.2413 7.43384 68.2408C14.1146 66.5445 20.4266 64.94 27.7502 66.1985C29.8107 66.5521 31.8184 66.98 33.7593 67.3925C36.3152 67.9377 38.7302 68.4519 41.1287 68.7771C44.5433 69.2411 47.5182 69.6986 50.1434 70.1025C68.5612 72.9371 70.7772 72.5892 76.6469 52.9536C76.7611 52.5718 76.9706 52.1395 77.2142 51.6382C77.4372 51.1774 77.6906 50.6553 77.9147 50.0709C80.6603 42.8958 84.4803 38.2903 88.6708 37.1017C100.672 33.7001 106.279 33.3423 117.657 43.1628C120.978 46.0291 123.859 47.8163 126.722 48.7872C131.742 50.4891 136.213 44.9008 140.159 39.9736C142.699 36.803 145.862 32.8553 147.591 33.2854C151.157 34.1666 153.495 37.9193 155.97 41.892C158.607 46.1264 161.335 50.5052 165.77 50.9606L166.327 51.0175L166.844 50.7571C180.143 44.0601 185.113 44.9893 186.939 46.9472C190.425 50.6879 187.625 63.1942 184.916 75.2889C182.276 87.0727 179.548 99.2572 181.023 108.493C182.215 115.95 185.748 121.481 191.522 124.933C198.922 129.357 209.646 132.116 219.51 132.116Z" fill="url(#paint8_linear_15_13534)"/>
<path d="M220.035 135.021C226.431 135.021 232.482 133.754 237.112 130.845C241.789 127.907 244.599 123.441 245.239 117.934C245.443 116.179 245.64 114.145 245.859 111.902C248.021 89.6189 252.063 48.1525 284.168 51.043C290.952 51.6656 295.264 48.6571 299.832 45.4799C303.619 42.8479 307.911 39.8632 314.627 38.1034C315.098 37.9786 315.599 37.9009 316.119 37.8702C325.847 37.2934 332.912 40.556 339.149 43.4355C341.056 44.3166 342.857 45.1484 344.635 45.8247C348.074 47.1316 351.487 46.9849 354.786 46.8437C358.87 46.6673 363.097 46.4869 367.811 48.9757C369.288 49.7538 370.727 50.5439 372.121 51.6583C375.551 54.4043 376.717 60.2266 377.951 66.3917C379.415 73.7059 380.929 81.2683 386.504 85.0049C388.629 86.4277 391.001 86.35 393.557 84.7761C395.468 83.5963 397.388 82.03 399.42 80.372C404.564 76.1727 410.384 71.4086 417.293 72.4241C430.106 74.2989 441.329 70.6062 453.212 66.6904C462.256 63.7101 471.608 60.6283 482.072 60.0066C559.966 55.3759 621.281 53.2211 624.885 53.8065C624.048 53.6696 622.931 52.5107 623.101 50.7749L627.672 51.4336L627.064 49.179C626.198 48.0485 626.128 47.9575 614.017 48.228C606.554 48.3955 596.046 48.7466 583.628 49.2459C566.483 49.9333 530.461 51.5192 481.847 54.4095C470.886 55.0606 461.29 58.2235 452.009 61.2816C440.573 65.0498 429.774 68.6132 417.843 66.8598C409.249 65.5991 402.378 71.2114 396.856 75.7173C394.944 77.2779 393.138 78.7522 391.477 79.7766C389.993 80.6915 389.253 80.4519 388.725 80.0961C384.922 77.5472 383.708 71.4839 382.423 65.065C381.032 58.1174 379.594 50.9336 374.647 46.9749C372.948 45.6155 371.242 44.6775 369.64 43.8337C363.972 40.8436 359.005 41.0604 354.624 41.2431C351.441 41.3809 348.696 41.4969 346.007 40.4748C344.361 39.8487 342.621 39.0466 340.781 38.1961C334.452 35.273 326.572 31.6458 315.896 32.2731C315.125 32.318 314.37 32.4361 313.654 32.6255C306.245 34.5682 301.423 37.9205 297.549 40.6138C293.1 43.7067 289.887 45.9471 284.509 45.4547C248.008 42.1691 243.463 88.8177 241.286 111.245C241.073 113.441 240.88 115.431 240.681 117.148C240.253 120.833 238.341 123.766 235 125.867C225.565 131.796 206.309 130.087 193.794 122.208C189.306 119.383 186.7 115.385 185.591 109.625C184.064 101.688 186.368 89.933 188.597 78.5649C191.537 63.5644 194.315 49.3967 188.35 42.9146C184.311 38.5247 177.32 38.6638 166.38 43.371C164.363 42.5195 162.567 39.7364 160.674 36.8042C157.777 32.316 154.493 27.2289 148.908 26.1168C144.628 25.272 140.895 30.106 137.29 34.7882C134.348 38.611 131.012 42.9374 128.602 42.33C126.312 41.7444 123.806 40.3139 120.94 37.9565C107.382 26.8008 100.18 29.4735 88.2517 33.8972C83.1183 35.8017 78.2905 41.2026 74.287 49.5149C74.1296 49.8421 73.9128 50.1903 73.6836 50.5579C73.3331 51.1205 72.9346 51.7595 72.6147 52.5335C67.1127 65.8529 66.5886 65.7654 53.2064 63.5227C49.7459 62.9428 45.4386 62.2203 40.1182 61.5942C37.796 61.3218 35.3948 60.8478 32.8513 60.3477C30.9247 59.9679 28.9316 59.5762 26.8627 59.2501C18.6672 57.9609 11.8408 59.5238 4.61359 61.1796C-3.27545 62.9864 -11.437 64.858 -22.2326 63.0642C-33.8256 61.1423 -44.2517 59.2795 -54.3353 57.4781C-83.0289 52.3518 -105.693 48.3023 -126.603 48.3023V53.9058C-106.029 53.9058 -83.5107 57.929 -55.0032 63.0215C-44.9088 64.8251 -34.4702 66.6901 -22.8547 68.6174C-11.3147 70.5316 -2.40076 68.4894 5.4649 66.6857C12.3218 65.1153 18.7993 63.6299 26.2729 64.8077C28.2678 65.1219 30.2251 65.5071 32.1166 65.8791C34.7338 66.3946 37.207 66.8816 39.6757 67.1718C44.9036 67.7868 49.1587 68.5004 52.5786 69.074C67.0253 71.4937 69.9597 71.4326 76.7266 55.052C76.857 54.7379 77.0971 54.3526 77.3505 53.9455C77.6374 53.4857 77.9619 52.9639 78.2576 52.3498C81.6659 45.272 85.5856 40.7443 89.5928 39.2582C101.287 34.9189 106.625 32.9389 118.362 42.5995C121.779 45.4101 124.733 47.0671 127.656 47.8133C132.604 49.0762 136.692 43.7606 140.649 38.6199C143.167 35.3485 146.309 31.2598 148.165 31.6482C151.982 32.4067 154.446 36.2242 157.055 40.2659C159.545 44.1248 162.12 48.1142 166.041 49.051L166.667 49.2008L167.268 48.936C176.441 44.8921 182.672 44.254 185.285 47.095C189.2 51.349 186.617 64.523 184.119 77.2635C181.767 89.2662 179.333 101.676 181.11 110.903C182.529 118.275 185.986 123.602 191.679 127.185C199.219 131.931 210.046 135.021 220.035 135.021Z" fill="url(#paint9_linear_15_13534)"/>
<path d="M220.598 137.846C226.329 137.846 231.802 136.764 236.257 134.26C241.338 131.402 244.547 126.876 245.534 121.168C246.051 118.178 246.486 114.518 246.988 110.28C249.84 86.2665 254.11 50.2999 281.072 50.2999C281.803 50.2999 282.549 50.3261 283.312 50.3798C290.263 50.8637 294.439 47.4829 298.864 43.8952C302.58 40.8833 306.793 37.4697 313.702 35.3234C314.18 35.1746 314.685 35.0738 315.203 35.0235C324.854 34.0681 331.966 38.3091 338.239 42.0432C340.078 43.1387 341.816 44.1731 343.535 45.0299C347.453 46.9834 351.37 46.8314 355.155 46.6835C359.029 46.5324 363.032 46.376 367.393 48.3876C368.842 49.0563 370.378 49.7994 371.835 50.8808C375.374 53.5075 376.388 59.5566 377.461 65.96C378.712 73.4231 380.005 81.14 385.523 85.0208C387.673 86.5355 390.092 86.4218 392.715 84.6826C394.563 83.4567 396.422 81.8293 398.39 80.1078C403.546 75.5976 409.387 70.4757 416.421 71.7244C429.577 74.0381 440.93 70.1451 452.951 66.0157C462.035 62.8966 471.428 59.6711 482.042 59.1152C564.545 54.7935 623.546 52.9493 626.887 53.4278C626.578 53.3829 625.934 53.1105 625.48 52.3694L627.317 50.7004L629.594 51.182L629.053 48.8432C628.163 47.6109 628.165 47.6109 615.994 47.8768C608.501 48.0398 597.922 48.3682 585.402 48.8256C568.082 49.4592 531.597 50.9105 481.844 53.5163C470.694 54.1007 461.038 57.4169 451.701 60.6236C440.165 64.5855 429.268 68.3297 417.081 66.1778C408.217 64.6159 401.277 70.6824 395.705 75.5571C393.856 77.1746 392.109 78.7024 390.512 79.7621C389.034 80.7437 388.348 80.537 387.826 80.1704C384.101 77.5491 383.067 71.3754 381.971 64.8405C380.748 57.5418 379.483 49.9956 374.231 46.0959C372.438 44.7651 370.675 43.9092 369.023 43.1475C363.803 40.7408 359.128 40.927 355.007 41.0822C351.402 41.2234 348.287 41.3438 345.279 39.8443C343.701 39.0573 342.03 38.0624 340.26 37.0097C333.794 33.1583 325.749 28.3724 314.833 29.4372C314.057 29.5137 313.294 29.667 312.565 29.8926C304.895 32.2762 300.136 36.132 296.313 39.2305C292.062 42.6769 288.989 45.1689 283.578 44.7847C269.106 43.7635 258.297 51.4289 251.455 67.5579C245.838 80.8006 243.87 97.3759 242.433 109.479C241.941 113.621 241.516 117.2 241.029 120.013C240.344 123.976 238.089 127.058 234.326 129.172C224.581 134.651 206.131 132.517 194.039 124.514C189.662 121.617 186.915 117.467 185.639 111.827C183.84 103.874 185.873 91.8416 187.838 80.2057C190.476 64.5924 192.967 49.8447 186.713 42.893C182.889 38.6431 176.469 38.176 167.108 41.4768C165.259 40.4076 163.565 37.8574 161.781 35.1729C158.724 30.5697 155.258 25.3536 149.311 24.4473C144.936 23.7719 141.263 28.7331 137.721 33.5247C134.887 37.3586 131.662 41.7176 129.242 41.2821C126.968 40.8902 124.457 39.5956 121.565 37.3245C108.433 27.017 101.458 30.2827 90.8968 35.2232L88.8794 36.1634C84.1865 38.3327 79.7307 43.1536 74.8561 51.3335C74.6674 51.6499 74.4075 51.9782 74.1324 52.3262C73.752 52.8078 73.3206 53.354 72.9483 54.0291C66.9312 64.9384 65.5583 64.6628 54.8857 62.5317C50.7538 61.7065 45.6104 60.68 38.5979 59.9816C36.2109 59.7452 33.7548 59.3008 31.1539 58.8302C29.2766 58.4911 27.3357 58.1396 25.3345 57.853C17.0562 56.6643 10.0958 58.0948 2.72833 59.6073C-5.17053 61.2293 -13.3373 62.905 -23.8076 61.32C-34.6859 59.6718 -44.5276 58.11 -54.0449 56.5986C-85.8519 51.5498 -108.835 47.901 -128.214 47.901C-128.216 47.901 -128.218 47.901 -128.221 47.901V53.5046C-128.22 53.5046 -128.216 53.5046 -128.215 53.5046C-109.133 53.5046 -86.2773 57.1327 -54.6401 62.155C-45.1158 63.6676 -35.2678 65.2305 -24.3759 66.8796C-13.2324 68.5661 -4.73114 66.8205 3.49329 65.1319C10.5291 63.6882 17.1756 62.3257 24.7959 63.417C26.7288 63.6951 28.6338 64.0386 30.4768 64.3724C33.155 64.8572 35.685 65.3146 38.2238 65.5674C45.0494 66.246 50.0901 67.2529 54.1404 68.0616C66.0031 70.4288 69.4095 70.498 76.7699 57.1521C76.9174 56.8841 77.1754 56.5567 77.4496 56.2109C77.8037 55.7634 78.2048 55.2555 78.5815 54.624C82.8465 47.4663 86.7493 43.1411 90.5135 41.401L92.5481 40.4532C102.77 35.6695 107.903 33.267 119.07 42.0337C122.533 44.7523 125.649 46.3218 128.596 46.8306C133.457 47.6646 137.363 42.3839 141.142 37.2728C143.766 33.7236 146.747 29.719 148.739 30.0069C152.845 30.6329 155.447 34.55 158.202 38.6968C160.515 42.1784 162.906 45.7778 166.303 47.1033L166.985 47.3694L167.671 47.1178C175.655 44.1804 181.018 44.1517 183.608 47.0312C187.931 51.8358 185.592 65.6839 183.329 79.0764C181.254 91.3614 179.109 104.064 181.201 113.315C182.825 120.501 186.305 125.775 191.839 129.437C199.341 134.401 210.377 137.845 220.598 137.846Z" fill="url(#paint10_linear_15_13534)"/>
<path d="M220.931 140.656C226.297 140.656 231.304 139.69 235.333 137.672C240.838 134.913 244.464 130.321 245.82 124.39C246.728 120.421 247.41 115.446 248.2 109.684C251.53 85.4109 256.092 52.1648 282.724 49.7111C289.449 49.0904 293.339 45.6967 297.457 42.1026C301.173 38.8597 305.385 35.1834 312.773 32.5415C313.258 32.3687 313.768 32.2448 314.285 32.1737C323.819 30.8637 330.96 36.0601 337.259 40.6393C339.063 41.9515 340.768 43.1904 342.456 44.227C346.816 46.9061 351.212 46.7102 355.469 46.5209C359.139 46.3568 362.933 46.1871 366.976 47.7948C368.445 48.3792 370.008 49.0382 371.55 50.0988C375.189 52.604 376.046 58.8684 376.953 65.5009C377.995 73.1249 379.074 81.008 384.542 85.0379C386.725 86.6446 389.189 86.4936 391.87 84.5882C393.661 83.3174 395.467 81.6299 397.379 79.8449C402.541 75.0249 408.392 69.5592 415.552 71.026C429.039 73.7828 440.516 69.6875 452.668 65.3491C461.798 62.0888 471.24 58.7169 482.014 58.2254C566.095 54.3883 625.744 52.6646 628.894 53.0464C628.8 53.0354 627.957 52.9064 627.379 51.8995L629.262 50.2984L631.495 51.001L631.059 48.5374C630.216 47.2634 630.217 47.2656 617.97 47.5251C610.436 47.686 599.787 47.9913 587.176 48.4094C569.651 48.9884 532.664 50.3072 481.841 52.6264C470.494 53.1431 460.773 56.6145 451.372 59.9722C439.742 64.1235 428.761 68.0503 416.315 65.4992C407.186 63.6377 400.192 70.1549 394.577 75.3996C392.784 77.0741 391.09 78.6555 389.551 79.749C387.873 80.9399 387.258 80.4889 386.925 80.2449C383.267 77.5481 382.406 71.2496 381.493 64.5813C380.448 56.9431 379.369 49.0445 373.815 45.2229C371.906 43.9072 370.022 43.1117 368.405 42.4692C363.585 40.5527 359.181 40.7486 355.301 40.9215C351.294 41.0988 347.833 41.2543 344.529 39.225C342.987 38.2785 341.351 37.0886 339.619 35.8291C333.039 31.0451 324.849 25.0915 313.771 26.6062C312.99 26.7134 312.219 26.9017 311.477 27.1656C303.338 30.0767 298.59 34.2204 294.776 37.5496C290.888 40.9424 287.815 43.6227 282.377 44.124C252.146 46.9105 247.04 84.1325 243.66 108.763C242.892 114.366 242.227 119.206 241.386 122.89C240.41 127.155 237.785 130.385 233.581 132.491C223.604 137.489 205.975 134.945 194.282 126.822C189.956 123.816 187.143 119.632 185.682 114.03C183.595 106.023 185.363 93.6366 187.072 81.6569C189.387 65.4438 191.572 50.1294 185.089 42.6641C181.495 38.5261 175.85 37.5236 167.854 39.6096C166.184 38.3761 164.62 36.067 162.974 33.6382C159.743 28.8707 156.08 23.4675 149.716 22.7814C145.238 22.2934 141.634 27.3672 138.156 32.2703C135.432 36.1118 132.376 40.4676 129.878 40.2467C127.627 40.0453 125.112 38.8842 122.188 36.6952C109.275 27.016 102.414 30.991 92.9203 36.4927C91.8351 37.1219 90.7042 37.7765 89.5139 38.4398C84.3597 41.3127 79.9184 47.0422 75.4457 53.1612C75.2165 53.4753 74.9099 53.7851 74.5846 54.1112C74.1845 54.5129 73.7313 54.9683 73.3195 55.5372C66.9085 64.4109 64.7939 63.879 55.9062 61.654C51.5314 60.5573 45.5413 59.0558 37.0778 58.3718C34.6251 58.1727 32.1141 57.7578 29.4567 57.3191C27.6308 57.017 25.7428 56.705 23.8071 56.4544C15.4524 55.3732 8.35364 56.6655 0.842163 58.0359C-7.06293 59.4783 -15.2369 60.9691 -25.3817 59.5747C-34.4018 58.3368 -42.8518 57.1528 -50.7733 56.0419C-86.1349 51.0831 -111.685 47.4998 -129.836 47.4998V53.1033C-111.949 53.1033 -86.509 56.6712 -51.3002 61.6084C-43.3752 62.7203 -34.9216 63.9057 -25.898 65.1434C-15.1519 66.6165 -6.67389 65.0723 1.5235 63.5783C8.73645 62.2639 15.5485 61.0228 23.3215 62.0275C25.1896 62.2683 27.0433 62.5746 28.837 62.8713C31.5754 63.3245 34.162 63.7512 36.7719 63.9626C44.9216 64.6225 50.4974 66.0191 54.9774 67.143C64.0458 69.415 68.5986 70.5576 76.7753 59.24C76.9443 59.0058 77.2213 58.7277 77.5152 58.4322C77.9394 58.0052 78.4205 57.5216 78.8854 56.8857C83.0182 51.2317 87.0883 45.9544 91.4296 43.5357C92.6425 42.8594 93.7932 42.1928 94.8981 41.5525C103.985 36.2882 108.991 33.3903 119.776 41.4672C123.342 44.1387 126.537 45.5669 129.541 45.8352C134.304 46.2663 138.037 41.0108 141.64 35.9326C144.163 32.3745 147.015 28.3547 149.137 28.3547C149.194 28.3547 149.252 28.3569 149.309 28.3636C153.755 28.843 156.508 32.9045 159.424 37.2056C161.525 40.306 163.698 43.5117 166.568 45.1162L167.282 45.5147L168.048 45.2991C174.779 43.3991 179.448 43.8819 181.925 46.7362C186.614 52.1339 184.541 66.6562 182.538 80.699C180.733 93.3421 178.868 106.415 181.295 115.725C183.122 122.731 186.623 127.953 192 131.689C200.361 137.496 211.231 140.655 220.931 140.656Z" fill="url(#paint11_linear_15_13534)"/>
<path d="M221.263 143.593C226.022 143.594 230.516 142.776 234.352 141.072C240.29 138.435 244.352 133.777 246.1 127.601C247.506 122.636 248.448 116.068 249.539 108.463C253.159 83.2236 257.664 51.8131 281.873 49.0398C288.744 48.2528 292.516 44.5001 296.51 40.5271C300.145 36.91 304.265 32.8112 311.838 29.7578C312.334 29.5587 312.847 29.4121 313.365 29.3211C322.77 27.6751 329.931 33.8093 336.246 39.2215C338.035 40.7537 339.724 42.2006 341.397 43.4186C346.165 46.8891 351.022 46.611 355.725 46.3386C359.206 46.1372 362.804 45.9315 366.56 47.1944C368.319 47.7876 369.793 48.3742 371.264 49.3132C374.997 51.6946 375.692 58.1672 376.43 65.0194C377.229 72.4506 378.135 80.8745 383.563 85.052C385.775 86.7539 388.285 86.5656 391.024 84.4929C392.761 83.1772 394.519 81.4307 396.379 79.5822C401.545 74.4493 407.399 68.6236 414.687 70.3233C428.499 73.5267 440.095 69.231 452.372 64.6825C461.554 61.2799 471.049 57.7611 481.986 57.3332C569.292 53.9152 628.28 52.3972 630.909 52.6633C630.518 52.625 629.73 52.3109 629.25 51.3685L631.205 49.8964L633.342 50.9491L633.095 48.2908C632.307 46.9151 632.309 46.9119 619.943 47.1733C612.352 47.332 601.633 47.6145 588.946 47.9909C571.174 48.5184 533.627 49.7048 481.839 51.7317C470.291 52.1836 460.5 55.8118 451.032 59.3205C439.313 63.6633 428.247 67.7685 415.549 64.8179C406.161 62.6454 399.12 69.6258 393.469 75.2414C391.726 76.9727 390.08 78.6089 388.593 79.734C386.916 81.0025 386.358 80.5712 386.024 80.3161C382.419 77.5416 381.727 71.1053 380.994 64.2914C380.137 56.3216 379.25 48.0817 373.4 44.3495C371.46 43.1116 369.556 42.3894 367.788 41.794C363.322 40.2912 359.172 40.531 355.508 40.74C351.122 40.995 347.334 41.2118 343.76 38.6092C342.234 37.4983 340.613 36.1083 338.896 34.6384C332.227 28.9243 323.919 21.8072 312.711 23.774C311.926 23.9108 311.146 24.1352 310.394 24.4373C302.012 27.8168 297.347 32.4586 293.598 36.1873C289.72 40.0452 286.918 42.8328 281.442 43.4598C253.736 46.6338 248.689 81.8123 245.005 107.499C243.949 114.868 243.035 121.232 241.75 125.775C240.451 130.364 237.431 133.739 232.776 135.807C222.475 140.379 206.031 137.511 194.525 129.126C190.251 126.012 187.372 121.794 185.724 116.23C183.325 108.132 184.833 95.2999 186.291 82.8901C188.263 66.1036 190.127 50.2483 183.503 42.2185C180.204 38.2205 175.328 36.7572 168.613 37.7793C167.148 36.4453 165.747 34.3954 164.275 32.2403C161.024 27.4816 156.979 21.5596 150.124 21.1152C145.565 20.8087 142.042 26.0161 138.651 31.0441C136.029 34.9314 133.056 39.3346 130.588 39.2218C128.138 39.1067 125.667 38.1033 122.814 36.0632C109.96 26.871 103.111 31.6844 94.4412 37.7781C93.0765 38.7379 91.6641 39.7306 90.1555 40.7221C86.161 43.3455 82.4526 47.6368 78.8663 51.7859C77.9296 52.8693 76.9937 53.953 76.0541 55.0045C75.7755 55.3155 75.4157 55.6031 75.0346 55.9074C74.6238 56.2368 74.1581 56.609 73.7212 57.074C66.9604 64.27 64.0809 63.3551 56.3933 60.9133C51.6626 59.4105 45.1841 57.3531 35.5565 56.7554C33.0392 56.599 30.475 56.2159 27.7609 55.8088C25.9854 55.5428 24.1504 55.2681 22.2795 55.0526C13.8402 54.0829 6.60938 55.2387 -1.04773 56.4634C-8.95386 57.7275 -17.1279 59.0363 -26.9562 57.8271L-40.2899 56.1833C-84.6276 50.711 -113.923 47.0951 -131.446 47.0951C-131.449 47.0951 -131.45 47.0951 -131.453 47.0951V52.6986C-131.451 52.6986 -131.448 52.6986 -131.446 52.6986C-114.156 52.6986 -84.9548 56.3027 -40.7548 61.7584L-27.4186 63.4021C-17.058 64.6749 -8.61426 63.3244 -0.448486 62.0188C6.94336 60.8358 13.9271 59.7183 21.8459 60.6323C23.652 60.8402 25.4545 61.1095 27.1978 61.3712C29.9965 61.7903 32.6397 62.1853 35.3225 62.3528C44.4782 62.9208 50.4407 64.8142 55.2307 66.3356C63.2932 68.8943 68.1579 70.4398 76.7509 61.2924C76.9495 61.0813 77.2463 60.8437 77.5609 60.5921C78.0555 60.198 78.6145 59.7504 79.1693 59.1298C80.1277 58.0571 81.0824 56.9529 82.0372 55.8476C85.405 51.9514 88.887 47.9228 92.3401 45.6539C93.908 44.6239 95.3494 43.6116 96.7435 42.6309C104.973 36.8467 109.941 33.3544 120.482 40.894C123.969 43.3872 127.217 44.672 130.411 44.8208C135.181 45.0418 138.745 39.7328 142.208 34.6009C144.748 30.8327 147.598 26.5995 149.879 26.7099C154.726 27.025 157.645 31.2979 160.736 35.8221C162.585 38.5297 164.497 41.3295 166.846 43.0858L167.559 43.6187L168.386 43.4711C174.029 42.4544 177.911 43.3485 180.256 46.1885C185.243 52.2354 183.459 67.4163 181.735 82.096C180.196 95.1857 178.606 108.721 181.394 118.131C183.418 124.96 186.939 130.13 192.161 133.934C200.738 140.185 211.553 143.593 221.263 143.593Z" fill="url(#paint12_linear_15_13534)"/>
<path d="M221.712 146.48C225.87 146.48 229.826 145.821 233.327 144.451C239.696 141.959 244.207 137.239 246.375 130.8C248.358 124.908 249.54 116.735 250.907 107.271C254.504 82.3791 258.98 51.4009 281.02 48.3694C288.031 47.4052 291.684 43.3044 295.551 38.9616C299.106 34.9703 303.137 30.4468 310.9 26.9743C311.401 26.7499 311.921 26.5792 312.446 26.4664C321.713 24.4909 328.888 31.5599 335.22 37.7939C337.003 39.5492 338.689 41.2084 340.358 42.6094C345.493 46.9203 350.796 46.5186 355.919 46.128C359.224 45.8764 362.641 45.6147 366.143 46.591C367.599 46.9949 369.312 47.541 370.977 48.5236C374.798 50.7805 375.331 57.4544 375.896 64.52C376.503 72.1231 377.192 80.7407 382.585 85.068C384.829 86.8683 387.382 86.6429 390.173 84.3971C391.862 83.04 393.575 81.2341 395.388 79.3233C400.553 73.8785 406.404 67.6982 413.823 69.6222C427.957 73.2776 439.665 68.7796 452.063 64.0209C461.3 60.4749 470.852 56.8075 481.959 56.4419C570.882 53.5175 630.461 52.1089 632.933 52.2786L633.056 49.5492L633.148 49.4955L635.18 48.1788C634.502 46.629 634.016 46.6444 630.235 46.6783C628.341 46.7013 625.542 46.7494 621.909 46.824C614.217 46.9816 603.428 47.2421 590.709 47.5771C572.59 48.0543 534.352 49.1124 481.835 50.8406C470.083 51.2268 460.218 55.0149 450.678 58.6769C438.876 63.2068 427.727 67.4873 414.779 64.1414C405.127 61.6471 398.056 69.0992 392.376 75.0869C390.679 76.8764 389.076 78.565 387.638 79.722C385.963 81.0661 385.435 80.6424 385.119 80.3908C381.56 77.5353 381.034 70.9502 380.477 63.9785C379.845 56.0723 379.129 47.1109 372.986 43.4829C370.904 42.2538 368.877 41.6028 367.168 41.1278C363.018 39.9742 359.094 40.2707 355.633 40.5358C350.889 40.8958 346.796 41.2067 342.97 37.9957C341.446 36.7173 339.828 35.1238 338.115 33.4373C331.369 26.7985 322.973 18.5399 311.65 20.9475C310.855 21.1182 310.069 21.3767 309.312 21.7149C300.689 25.5716 296.11 30.7123 292.431 34.8437C288.708 39.0234 286.018 42.043 280.504 42.8014C255.044 46.3036 250.032 80.981 246.373 106.301C245.108 115.065 243.911 123.344 242.116 128.676C240.456 133.606 237.025 137.12 231.92 139.117C221.539 143.177 205.916 139.946 194.767 131.437C190.545 128.215 187.599 123.963 185.761 118.437C183.021 110.202 184.272 96.8133 185.482 83.8659C187.099 66.5618 188.627 50.2172 181.994 41.5689C179.091 37.7833 174.823 35.9171 169.38 36.0037C168.147 34.6674 166.952 32.9469 165.698 31.14C162.268 26.2018 158 20.0566 150.641 19.4634C145.858 19.0487 142.346 24.5056 138.963 29.7577C136.347 33.8179 133.642 38.0163 131.144 38.21C128.936 38.3895 126.42 37.4733 123.439 35.4367C110.54 26.632 103.636 32.4074 95.6426 39.0977C94.1061 40.3837 92.5184 41.7134 90.8022 43.018C87.9353 45.1981 85.133 48.1761 82.4224 51.0544C80.5469 53.0462 78.6078 55.1061 76.6757 56.8725C76.3315 57.1866 75.9088 57.4547 75.462 57.7372C75.0314 58.0108 74.5864 58.2921 74.1422 58.6543C67.0128 64.479 63.4849 63.0869 56.4581 60.3091C51.1448 58.21 44.5324 55.5975 34.0327 55.1478C31.4534 55.0362 28.839 54.6848 26.0718 54.3128C24.3448 54.0796 22.5602 53.84 20.7504 53.6573C12.2302 52.796 4.51648 53.863 -2.9436 54.8952C-10.8489 55.9884 -19.0264 57.1214 -28.531 56.0848C-79.0846 50.5875 -116.177 46.6957 -133.064 46.6957C-133.066 46.6957 -133.068 46.6957 -133.071 46.6957V52.2992C-133.069 52.2992 -133.065 52.2992 -133.064 52.2992C-116.369 52.2992 -79.3777 56.1812 -28.9411 61.6665C-18.9672 62.7543 -10.5576 61.5888 -2.42407 60.4627C5.14844 59.4153 12.3011 58.428 20.369 59.2412C22.1168 59.4173 23.8699 59.6536 25.5655 59.8815C28.2958 60.2493 31.1187 60.6289 33.8707 60.7471C43.725 61.1706 49.9968 63.6484 55.0367 65.6392C62.4025 68.5494 67.7221 70.6485 76.7062 63.309C76.9372 63.1197 77.2527 62.9206 77.5873 62.7082C78.1519 62.3504 78.7911 61.9453 79.4384 61.3543C81.507 59.4631 83.5102 57.3355 85.4485 55.2768C88.141 52.4159 90.6854 49.7147 93.2414 47.77C95.0431 46.3997 96.674 45.035 98.2507 43.7152C106.069 37.1727 110.788 33.2228 121.187 40.3246C124.966 42.9064 128.316 44.0457 131.436 43.8027C135.991 43.4503 139.344 38.2473 142.585 33.2162C145.231 29.1098 147.958 24.9114 150.337 25.0537C155.746 25.4904 158.873 29.9919 162.183 34.7582C163.728 36.9831 165.327 39.2836 167.145 41.0336L167.817 41.6805L168.675 41.6334C173.239 41.3784 176.499 42.6141 178.63 45.3928C183.813 52.1521 182.336 67.9515 180.909 83.232C179.633 96.8754 178.314 110.985 181.494 120.541C183.709 127.197 187.252 132.315 192.322 136.184C201.022 142.825 211.924 146.48 221.712 146.48Z" fill="url(#paint13_linear_15_13534)"/>
<path d="M222.114 149.393C225.702 149.393 229.143 148.874 232.282 147.801C239.066 145.481 244.034 140.704 246.648 133.987C249.279 127.224 250.734 116.956 252.275 106.085C255.938 80.2351 260.091 50.937 280.171 47.6963C287.311 46.5439 290.843 42.1048 294.584 37.4042C298.059 33.0374 301.999 28.0872 309.957 24.1888C310.473 23.936 310.999 23.7412 311.519 23.612C320.64 21.3225 327.843 29.3119 334.193 36.3622C335.979 38.3442 337.665 40.2158 339.335 41.8004C344.804 46.9893 350.523 46.4299 356.055 45.8816C359.197 45.5731 362.448 45.2523 365.726 45.9802C367.099 46.2833 368.903 46.7561 370.689 47.7323C374.594 49.8643 374.963 56.7342 375.354 64.0068C375.772 71.7872 376.245 80.6061 381.61 85.0845C383.883 86.9801 386.476 86.7175 389.319 84.3042C390.963 82.9034 392.63 81.0439 394.395 79.0749C399.562 73.3115 405.416 66.782 412.961 68.9207C427.409 73.0239 439.227 68.3297 451.742 63.362C461.039 59.6704 470.652 55.8541 481.933 55.551C570.018 53.1804 632.926 51.8551 634.981 51.8902L635.038 49.1081L637.312 48.3704C636.846 46.2418 636.042 46.2592 632.19 46.3173C630.3 46.348 627.502 46.4005 623.86 46.4738C616.583 46.6204 605.936 46.8524 592.454 47.1634C573.657 47.5979 534.291 48.5369 481.831 49.9499C469.871 50.2707 459.929 54.2182 450.314 58.0347C438.43 62.7529 427.206 67.2126 414.007 63.4643C404.099 60.6559 396.692 68.9123 391.285 74.944C389.635 76.785 388.076 78.5251 386.683 79.7113C385.013 81.1275 384.531 80.7292 384.213 80.4632C380.693 77.5246 380.331 70.7805 379.947 63.6404C379.506 55.4343 379.006 46.1337 372.573 42.6195C370.334 41.3971 368.178 40.8269 366.548 40.4667C362.679 39.6098 359.122 39.9578 355.684 40.2969C350.606 40.796 346.22 41.2274 342.164 37.3814C340.635 35.9301 339.013 34.1287 337.295 32.2223C330.487 24.6631 322.014 15.2529 310.593 18.1238C309.803 18.3197 309.011 18.6118 308.238 18.9906C299.373 23.3344 294.885 28.9742 291.278 33.5063C287.702 37.9989 285.119 41.2462 279.567 42.1416C256.131 45.924 251.478 78.7529 247.739 105.132C246.253 115.616 244.85 125.519 242.487 131.588C240.432 136.872 236.58 140.511 231.037 142.407C220.651 145.959 205.836 142.398 195.009 133.747C190.841 130.417 187.827 126.131 185.795 120.644C182.677 112.22 183.674 98.1396 184.637 84.5237C185.838 67.5763 187.078 50.052 180.611 40.7295C178.095 37.1026 174.582 34.9367 170.159 34.2844C169.235 33.0904 168.325 31.7333 167.371 30.3095C163.728 24.87 159.195 18.1022 151.046 17.801C150.968 17.7988 150.89 17.7966 150.813 17.7966C146.026 17.7966 142.667 23.2491 139.416 28.5254C136.908 32.5967 134.315 36.8049 131.778 37.2132C129.601 37.5656 127.079 36.7786 124.064 34.8109C111.046 26.3191 104.047 33.1814 96.6381 40.4451C94.9984 42.0528 93.3026 43.7152 91.4588 45.3185C89.4953 47.0248 87.5121 49.0703 85.5935 51.0468C82.9207 53.8015 80.1571 56.6503 77.3052 58.7659C76.8792 59.0823 76.3846 59.3275 75.8605 59.5867C75.4111 59.8099 74.9749 60.0299 74.5686 60.2817C66.4037 65.3425 62.2295 63.4785 54.6531 60.0978C49.3354 57.725 42.7175 54.7721 32.6951 53.5497C28.9587 53.0943 25.2168 52.7738 21.2558 52.4334L19.2212 52.2583C10.6211 51.5152 2.76172 52.4346 -4.83875 53.3243C-12.7394 54.2503 -20.9072 55.2079 -30.1071 54.34C-87.5032 48.9249 -121.711 46.2926 -134.68 46.2926C-134.683 46.2926 -134.685 46.2926 -134.688 46.2926V51.8961C-134.685 51.8961 -134.682 51.8961 -134.68 51.8961C-121.832 51.8961 -87.7423 54.5227 -30.463 59.9261C-20.8621 60.8357 -12.4931 59.8518 -4.39819 58.9018C3.35602 57.9935 10.6804 57.1288 18.8939 57.849L20.9329 58.0241C24.859 58.3601 28.5674 58.6786 32.2363 59.1252C41.6789 60.2778 47.9946 63.096 53.0688 65.3592C60.6873 68.7586 66.7036 71.4453 76.6558 65.2761C76.9497 65.0943 77.269 64.9401 77.5971 64.777C78.2355 64.4607 78.9583 64.1017 79.7009 63.5511C82.8573 61.2089 85.7603 58.2169 88.568 55.3242C90.5001 53.3324 92.3252 51.451 94.134 49.8783C96.0858 48.1818 97.8335 46.4679 99.5247 44.8099C106.771 37.7059 111.558 33.0129 121.89 39.7513C125.784 42.2914 129.215 43.2797 132.38 42.7686C136.835 42.0518 140.019 36.8848 143.098 31.8878C145.669 27.7147 148.327 23.4014 150.828 23.4014C150.854 23.4014 150.88 23.4014 150.907 23.4026C156.956 23.6257 160.282 28.5924 163.804 33.8501C164.973 35.5956 166.183 37.4015 167.474 38.959L168.07 39.677L168.905 39.7602C172.528 40.1246 175.206 41.6239 177.094 44.3447C182.328 51.8897 181.171 68.2353 180.051 84.0423C179.036 98.374 177.987 113.193 181.598 122.947C183.968 129.345 187.63 134.554 192.483 138.432C201.314 145.486 212.266 149.393 222.114 149.393Z" fill="url(#paint14_linear_15_13534)"/>
<path d="M222.464 152.329C225.519 152.329 228.47 151.933 231.231 151.116C238.405 148.992 243.829 144.167 246.916 137.16C250.258 129.577 251.89 117.583 253.618 104.886C257.092 79.3596 261.029 50.4269 279.322 47.0231C286.582 45.6714 289.996 40.9041 293.609 35.8553C297.005 31.1121 300.854 25.7361 309.008 21.4022C309.534 21.1219 310.068 20.9041 310.595 20.7521C319.576 18.1703 326.795 27.0638 333.161 34.9185C334.956 37.1327 336.649 39.2231 338.328 40.9948C344.099 47.0866 350.219 46.3325 356.137 45.6003C359.131 45.2314 362.227 44.8474 365.308 45.3616C367.347 45.7033 368.917 46.1881 370.399 46.9355C374.116 48.8103 374.544 54.4359 374.805 63.4792C375.034 71.4436 375.296 80.4705 380.636 85.1011C382.946 87.1029 385.58 86.8008 388.468 84.2048C390.072 82.7678 391.709 80.8415 393.441 78.8026C398.599 72.7352 404.449 65.8533 412.103 68.2183C426.861 72.7646 438.787 67.8801 451.414 62.7045C460.772 58.8684 470.449 54.9023 481.906 54.6605C542.103 53.3878 589.812 52.4422 615.443 51.9353L635.654 51.5292C637.313 51.4931 639.194 51.4527 639.327 48.8675L637.03 48.6924L636.923 45.8938C636.466 45.9146 628.525 46.0711 615.368 46.3315C589.737 46.8394 542.026 47.7838 481.827 49.0568C469.656 49.314 459.636 53.4214 449.945 57.3941C437.979 62.2982 426.674 66.9333 413.234 62.7852C403.094 59.6639 395.665 68.3931 390.243 74.7738C388.624 76.6782 387.094 78.4775 385.736 79.6943C384.071 81.1927 383.61 80.7998 383.307 80.5369C379.817 77.5098 379.616 70.5982 379.405 63.2821C379.159 54.7814 378.882 45.1483 372.161 41.7587C370.325 40.8327 368.347 40.2133 365.934 39.8106C362.309 39.2032 358.934 39.6223 355.672 40.0262C350.051 40.7199 345.613 41.2683 341.343 36.7614C339.801 35.1329 338.167 33.1168 336.438 30.9828C329.577 22.5173 321.039 11.98 309.535 15.2994C308.741 15.527 307.944 15.8531 307.166 16.2668C298.064 21.1043 293.67 27.2419 290.139 32.1734C286.702 36.9736 284.219 40.4421 278.626 41.4828C257.033 45.5017 252.622 77.9213 249.077 103.97C247.413 116.197 245.841 127.745 242.86 134.511C240.409 140.076 236.011 143.935 230.144 145.67C219.814 148.728 205.791 144.865 195.25 136.057C191.136 132.62 188.054 128.301 185.826 122.851C182.28 114.179 183.024 99.2364 183.743 84.7865C184.889 61.7442 186.074 37.9302 170.936 32.6286C170.348 31.7247 169.761 30.768 169.147 29.7677C165.289 23.4791 160.501 15.6592 151.362 16.1462C146.429 16.4132 143.133 21.9545 139.946 27.3127C137.526 31.3818 135.023 35.589 132.417 36.2259C130.274 36.7511 127.745 36.0814 124.688 34.1836C111.51 25.938 104.707 33.6507 97.5024 41.8151C95.8015 43.7424 94.043 45.7354 92.1245 47.6212C90.9593 48.7681 89.8157 49.9656 88.6048 51.2329C85.2272 54.7701 81.7343 58.4268 77.9387 60.6846C77.4101 60.9987 76.8293 61.2197 76.2144 61.4539C75.7917 61.6147 75.3799 61.7734 74.988 61.9529C66.3087 65.9357 61.4899 63.437 54.1924 59.6534C48.614 56.7609 41.6715 53.16 31.1978 51.9387C27.8633 51.549 24.4164 51.318 21.0837 51.0939C19.958 51.0184 18.8279 50.9428 17.6915 50.8607C9.00787 50.228 1.00281 51.0041 -6.73895 51.7526C-14.6315 52.5155 -22.7928 53.3056 -31.6834 52.5942C-93.7592 47.6452 -126.832 45.8896 -136.298 45.8896C-136.3 45.8896 -136.303 45.8896 -136.306 45.8896V51.4931C-136.303 51.4931 -136.3 51.4931 -136.298 51.4931C-126.903 51.4931 -93.9525 53.2453 -31.9838 58.1867C-22.7588 58.9189 -14.4293 58.1156 -6.37488 57.3384C1.55902 56.5701 9.05341 55.8467 17.418 56.4541C18.5606 56.5363 19.6979 56.6128 20.8298 56.6883C24.2687 56.9203 27.5168 57.1381 30.7589 57.5157C40.5223 58.6551 46.8264 61.9242 52.3889 64.8091C59.8004 68.6528 66.2015 71.9755 76.6106 67.1962C76.9226 67.0539 77.2516 66.9301 77.5888 66.8021C78.3053 66.5284 79.118 66.2199 79.9596 65.7187C84.2866 63.1457 88.0078 59.2495 91.6066 55.4813C92.7897 54.2424 93.9062 53.0724 95.0167 51.9814C97.0619 49.971 98.8797 47.9101 100.639 45.9159C107.65 37.9692 112.282 32.7201 122.59 39.1721C126.613 41.6685 130.12 42.5035 133.321 41.72C137.695 40.6518 140.734 35.5419 143.674 30.5993C146.22 26.3178 148.854 21.8907 151.567 21.7431C158.258 21.3765 161.756 27.0839 165.46 33.121C166.229 34.3754 167.025 35.6721 167.835 36.875L168.321 37.5984L169.067 37.8216C181.288 41.4627 180.249 62.3426 179.148 84.4471C178.357 100.332 177.611 115.335 181.705 125.349C184.255 131.584 187.936 136.742 192.645 140.678C201.612 148.169 212.572 152.329 222.464 152.329Z" fill="url(#paint15_linear_15_13534)"/>
<path d="M222.763 155.287C225.323 155.287 227.816 154.994 230.195 154.392C237.724 152.49 243.599 147.624 247.185 140.323C251.294 131.959 253.056 118.214 254.922 103.662C258.154 78.4529 261.819 49.8792 278.475 46.3464C285.844 44.7836 289.139 39.6988 292.626 34.314C295.942 29.1941 299.702 23.3915 308.057 18.6141C308.593 18.3088 309.137 18.0648 309.671 17.8897C318.512 15.0092 325.749 24.8153 332.13 33.4692C333.936 35.9185 335.643 38.2323 337.332 40.1946C343.381 47.2143 349.88 46.2314 356.168 45.2849C359.026 44.8537 361.981 44.405 364.888 44.7397C366.889 44.9673 368.547 45.4107 370.108 46.1363C373.899 47.8983 374.202 53.6594 374.251 62.9404C374.294 71.0928 374.344 80.3334 379.663 85.1161C382.009 87.2251 384.682 86.8847 387.612 84.1082C389.177 82.6341 390.78 80.6487 392.478 78.5473C397.628 72.1733 403.463 64.9467 411.25 67.5164C425.982 72.4436 437.768 67.3435 450.248 61.9423C459.891 57.7715 469.88 53.4998 481.802 53.7669C531.015 55.056 571.014 54.2956 595.903 53.4309C610.484 52.9252 621.3 52.3409 627.806 51.9392C631.494 51.7116 634.322 51.51 636.229 51.3602C640.061 51.0581 640.651 51.0122 641.153 49.1767L638.97 48.2901L638.608 45.5279C635.436 46.0139 572.533 50.536 481.901 48.1656C469.103 47.834 458.741 52.32 448.706 56.6628C436.931 61.7584 425.809 66.5718 412.461 62.1098C402.071 58.681 394.629 67.8928 389.196 74.6183C387.611 76.5806 386.114 78.4335 384.789 79.6813C383.125 81.2606 382.687 80.8699 382.399 80.6095C378.931 77.4924 378.892 70.0766 378.854 62.9046C378.808 54.1173 378.755 44.158 371.75 40.9009C369.788 39.9903 367.744 39.4366 365.317 39.1607C361.909 38.7701 358.703 39.2571 355.602 39.7243C349.665 40.6196 344.978 41.3254 340.51 36.1388C338.949 34.3275 337.301 32.0927 335.556 29.7265C328.649 20.3592 320.048 8.70978 308.48 12.478C307.683 12.7384 306.884 13.0965 306.103 13.5418C296.761 18.8827 292.464 25.5149 289.012 30.845C285.707 35.9463 283.32 39.6311 277.686 40.8263C257.78 45.0477 253.845 75.7292 250.374 102.799C248.579 116.797 246.884 130.019 243.235 137.447C240.327 143.368 235.494 147.33 229.26 148.906C219.034 151.494 205.78 147.356 195.491 138.369C191.489 134.874 188.247 130.397 185.855 125.062C181.818 116.066 182.311 100.042 182.788 84.5457C183.48 62.0296 184.195 38.7573 171.703 31.0426L171.242 30.201C167.191 22.7828 162.139 13.559 151.781 14.4948C146.726 14.9543 143.515 20.6137 140.41 26.087C138.094 30.1672 135.7 34.3861 133.06 35.2508C130.936 35.9458 128.403 35.3942 125.316 33.5621C111.919 25.5639 104.98 34.5416 98.2683 43.2261C96.5403 45.4621 94.7539 47.7734 92.8003 49.9285L91.5425 51.3239C87.5417 55.7716 83.4045 60.3707 78.5684 62.6317C77.912 62.9392 77.2233 63.1329 76.4943 63.3387C76.1176 63.4449 75.749 63.5498 75.393 63.6658C66.1276 66.6787 60.5572 63.3921 53.5042 59.2301C47.3889 55.6228 40.4574 51.534 29.7031 50.328C26.5087 49.9702 23.2425 49.8147 20.0834 49.6637C18.7807 49.6014 17.4735 49.5401 16.1619 49.4633C7.40088 48.9577 -0.752625 49.5783 -8.63538 50.1814C-16.5181 50.7834 -24.6688 51.4092 -33.26 50.8511C-95.235 46.8367 -131.067 45.4872 -137.917 45.4872C-137.919 45.4872 -137.921 45.4872 -137.924 45.4872V51.0907C-137.921 51.0907 -137.918 51.0907 -137.916 51.0907C-131.107 51.0907 -95.3915 52.438 -33.5046 56.4457C-24.6464 57.0181 -16.3618 56.3857 -8.34692 55.7726C-0.58905 55.1794 7.43286 54.5644 15.9423 55.0602C17.2666 55.1367 18.5873 55.2002 19.9036 55.2628C23.1454 55.417 26.2076 55.5637 29.2805 55.9075C39.2022 57.0206 45.7336 60.8729 51.4964 64.2735C58.7823 68.5692 65.6624 72.6307 76.5803 69.0793C76.8887 68.9797 77.207 68.8899 77.5334 68.798C78.3442 68.5692 79.2632 68.31 80.2196 67.8634C85.8663 65.2225 90.5306 60.0371 94.6455 55.4612L95.8906 54.081C97.9808 51.7761 99.8311 49.3814 101.62 47.0657C108.438 38.2423 112.943 32.4176 123.292 38.5957C127.428 41.0495 131.011 41.7268 134.255 40.662C138.525 39.2645 141.409 34.184 144.196 29.2721C146.687 24.8822 149.263 20.3435 152.123 20.0831C159.806 19.3748 163.499 26.1442 167.408 33.3029L168.587 35.4501L169.175 35.7795C179.502 41.5483 178.834 63.3004 178.187 84.3367C177.664 101.339 177.17 117.398 181.814 127.748C184.54 133.826 188.238 138.932 192.807 142.922C201.917 150.878 212.838 155.287 222.763 155.287Z" fill="url(#paint16_linear_15_13534)"/>
<path d="M223.016 158.263C225.123 158.263 227.19 158.055 229.194 157.629C237.03 155.966 243.344 151.072 247.453 143.475C252.378 134.369 254.221 118.843 256.173 102.407C259.272 76.297 262.477 49.2982 277.63 45.67C285.097 43.8816 288.274 38.4895 291.637 32.7807C294.874 27.2844 298.544 21.0561 307.102 15.8278C307.65 15.494 308.203 15.2235 308.744 15.0278C317.444 11.8626 324.703 22.5686 331.101 32.0124C332.923 34.7026 334.645 37.2427 336.348 39.3978C342.648 47.3599 349.514 46.1254 356.155 44.9356C358.888 44.4441 361.718 43.9318 364.466 44.1113C366.432 44.2349 368.181 44.6344 369.815 45.3338C373.677 46.9854 373.857 52.88 373.694 62.393C373.551 70.7382 373.39 80.1974 378.692 85.1334C381.071 87.3464 383.782 86.9699 386.752 84.0105C388.281 82.4991 389.853 80.4556 391.516 78.292C396.658 71.6006 402.482 64.0149 410.394 66.8135C425.426 72.174 437.312 66.877 449.895 61.2691C459.604 56.9427 469.649 52.4501 481.772 52.8759C532.144 54.5689 572.517 53.9485 597.516 53.1287C612.42 52.6417 623.226 52.0475 629.667 51.6338C642.3 50.8238 642.3 50.8238 642.981 49.1133L643.63 47.4847L642.677 46.0926L639.143 49.6822L640.91 47.8874L638.757 46.9013C639.128 45.7039 639.996 45.2389 640.45 45.1536C637.741 45.6659 575.28 50.4113 481.9 47.2746C468.855 46.839 458.428 51.5001 448.312 56.0072C436.46 61.2902 425.263 66.2806 411.682 61.4334C401.053 57.686 393.599 67.3795 388.155 74.4627C386.602 76.4829 385.136 78.3906 383.844 79.668C382.181 81.325 381.766 80.9375 381.488 80.6825C378.041 77.4724 378.171 69.8661 378.297 62.5092C378.451 53.4418 378.628 43.1628 371.341 40.0479C369.286 39.168 367.115 38.6667 364.703 38.5145C361.491 38.3207 358.439 38.8615 355.484 39.3921C349.246 40.5097 344.32 41.3949 339.664 35.5102C338.083 33.5118 336.417 31.0514 334.653 28.4465C327.707 18.1915 319.066 5.43369 307.427 9.65826C306.631 9.94714 305.828 10.3378 305.04 10.8184C295.465 16.6672 291.268 23.7909 287.896 29.5148C284.716 34.9125 282.419 38.8122 276.742 40.1715C258.388 44.5658 254.791 74.8686 251.617 101.605C249.741 117.406 247.969 132.331 243.609 140.393C240.216 146.666 234.958 150.718 228.403 152.109C218.325 154.247 205.801 149.871 195.732 140.682C191.788 137.084 188.473 132.573 185.88 127.276C181.271 117.861 181.517 100.462 181.755 83.6365C182.065 61.7968 182.384 39.2251 172.442 29.5064C169.235 22.4813 163.881 11.3594 152.202 12.8458C147.025 13.5003 143.902 19.2779 140.882 24.8637C138.668 28.9569 136.379 33.1903 133.712 34.2857C131.606 35.1548 129.064 34.7124 125.943 32.9416C112.298 25.1666 105.525 35.0759 98.9741 44.6641C97.2409 47.201 95.449 49.8245 93.4855 52.2365C89.091 57.6333 84.6921 62.6404 79.1926 64.6027C78.3619 64.9005 77.4872 65.0711 76.6421 65.2364C76.349 65.2943 76.0613 65.3502 75.7781 65.4105C65.8691 67.5097 59.734 63.4754 52.6333 58.8001C46.2969 54.628 39.1155 49.899 28.2101 48.7182C25.0607 48.3769 21.8718 48.2893 18.7873 48.2037C17.4037 48.1655 16.0192 48.1272 14.6329 48.0669C5.78644 47.6807 -2.51172 48.1522 -10.5375 48.6076C-18.7681 49.076 -26.5421 49.516 -34.8373 49.1077C-96.7736 46.0465 -134.372 45.0856 -139.53 45.0856C-139.534 45.0856 -139.537 45.0856 -139.541 45.0856L-139.539 50.6891C-139.537 50.6891 -139.534 50.6891 -139.531 50.6891C-134.602 50.6891 -96.0355 51.6916 -35.0245 54.7067C-26.5278 55.1249 -18.2899 54.6587 -10.3225 54.2055C-2.39221 53.7557 5.81244 53.2915 14.4675 53.666C15.8736 53.7273 17.2797 53.7668 18.6832 53.805C21.6924 53.8882 24.8038 53.9747 27.8021 54.2997C37.7616 55.3789 44.2086 59.6241 50.4434 63.7295C57.972 68.6851 65.0814 73.3651 76.5702 70.9309C76.8337 70.875 77.1016 70.8225 77.3732 70.7688C78.3135 70.5849 79.3798 70.3769 80.4883 69.9797C87.0332 67.6453 92.1129 61.8829 96.7546 56.1808C98.8601 53.5959 100.718 50.8772 102.514 48.2471C108.929 38.8558 113.563 32.0713 123.995 38.0184C128.244 40.4272 131.905 40.9427 135.184 39.5954C139.354 37.8815 142.085 32.8295 144.726 27.9441C147.269 23.2413 149.671 18.799 152.679 18.4181C160.939 17.3828 164.797 24.2776 168.645 32.7246L168.882 33.2445L169.273 33.6023C177.75 41.3849 177.447 62.8153 177.154 83.5396C176.893 101.96 176.646 119.359 181.927 130.145C184.829 136.073 188.544 141.126 192.971 145.165C202.228 153.614 213.068 158.263 223.016 158.263Z" fill="url(#paint17_linear_15_13534)"/>
<path d="M223.228 161.257C224.922 161.257 226.594 161.117 228.234 160.831C236.331 159.422 243.069 154.507 247.722 146.617C253.509 136.803 255.38 119.466 257.361 101.11C260.144 75.3376 263.021 48.6855 276.787 44.9908C284.339 42.964 287.4 37.2762 290.64 31.2545C293.799 25.3828 297.38 18.7287 306.143 13.0418C306.7 12.6806 307.263 12.3851 307.815 12.1629C316.388 8.73851 323.661 20.3165 330.073 30.5451C331.914 33.4815 333.652 36.256 335.375 38.6078C341.769 47.336 349.135 45.819 355.63 44.4805C358.38 43.9126 361.22 43.3324 363.964 43.4758C365.615 43.5656 367.565 43.7615 369.521 44.5286C373.453 46.0718 373.509 52.0978 373.135 61.8384C372.807 70.3805 372.435 80.0619 377.721 85.1499C379.381 86.7466 382.143 87.8247 385.89 83.9164C387.384 82.3678 388.922 80.2677 390.551 78.0446C395.686 71.0338 401.51 63.0935 409.539 66.1086C424.863 71.907 436.85 66.4129 449.54 60.597C459.317 56.1164 469.432 51.4715 481.743 51.9838C533.239 54.0798 573.997 53.5982 599.117 52.8286C614.298 52.3612 625.116 51.756 631.519 51.3293C644.082 50.4931 644.097 50.4636 644.843 48.8932L645.534 47.4387L644.806 46.0071L640.895 48.9631L642.85 47.4846L640.748 46.3519C641.132 45.2969 641.909 44.8677 642.307 44.7802C639.78 45.3361 578.339 50.3116 481.898 46.3825C468.657 45.855 458.118 50.6782 447.918 55.3525C435.989 60.8204 424.72 65.9862 410.901 60.7559C400.039 56.6802 392.57 66.8705 387.116 74.3149C385.596 76.3901 384.159 78.3502 382.899 79.6558C381.236 81.3915 380.838 81.0097 380.575 80.7535C377.143 77.4505 377.443 69.647 377.733 62.0998C378.092 52.7556 378.499 42.1633 370.933 39.1953C368.458 38.2245 366.125 37.9849 364.17 37.8787C360.941 37.7024 357.85 38.3382 354.861 38.9545C348.519 40.2645 343.51 41.2945 338.811 34.8778C337.205 32.6857 335.517 29.9945 333.731 27.1457C326.753 16.013 318.066 2.1531 306.374 6.84042C305.572 7.16216 304.766 7.58471 303.978 8.09675C294.174 14.4575 290.079 22.0685 286.789 28.1843C283.728 33.8731 281.516 37.9829 275.796 39.5183C258.877 44.0602 255.787 72.692 252.797 100.38C250.893 118.018 249.095 134.678 243.981 143.349C240.079 149.969 234.407 154.096 227.583 155.283C217.669 157.014 205.853 152.415 195.971 142.996C192.085 139.293 188.698 134.75 185.904 129.495C180.323 118.999 180.034 99.0471 179.754 79.7522C179.455 59.11 179.172 39.6134 173.123 27.9991L172.488 26.7754C168.076 18.2564 163.518 9.4482 152.625 11.1982C147.323 12.0508 144.293 17.9422 141.363 23.6399C139.249 27.7485 137.064 31.9971 134.371 33.328C132.278 34.3633 129.728 34.0328 126.573 32.3223C112.65 24.7488 106.036 35.6199 99.6361 46.1341C97.9135 48.9621 96.1336 51.8877 94.179 54.545C90.4407 59.6286 85.8099 65.0374 79.8051 66.5971C78.6957 66.886 77.5718 67.0152 76.485 67.14L76.1434 67.1795C65.5204 68.3966 59.0779 63.7441 51.6132 58.3441C45.0818 53.6183 37.678 48.2632 26.7172 47.1087C23.5759 46.7781 20.4249 46.755 17.3781 46.7332C15.9512 46.7234 14.5253 46.7136 13.1022 46.6719C4.17291 46.4102 -4.27173 46.7266 -12.4403 47.0341C-20.653 47.3426 -28.4099 47.6349 -36.4156 47.3647C-99.215 45.2567 -138.561 44.6833 -141.149 44.6833C-141.152 44.6833 -141.155 44.6833 -141.159 44.6833L-141.157 50.2868C-141.153 50.2868 -141.15 50.2868 -141.146 50.2868C-138.57 50.2868 -99.296 50.8604 -36.5434 52.966C-28.4054 53.2428 -20.5801 52.9464 -12.2983 52.6354C-4.19073 52.3311 4.19 52.015 12.9926 52.2732C14.4427 52.3159 15.8964 52.3269 17.3502 52.3367C20.307 52.3585 23.364 52.3804 26.3207 52.6913C36.2316 53.7343 42.8558 58.5268 49.2623 63.1607C56.736 68.5682 64.4551 74.1556 76.5795 72.7577L76.9167 72.7183C78.0782 72.5846 79.3945 72.4338 80.7664 72.078C88.0647 70.1814 93.3762 64.0393 97.6098 58.2813C99.7046 55.4315 101.55 52.401 103.334 49.47C110.244 38.1227 114.638 31.9642 124.697 37.4397C129.057 39.8037 132.788 40.1571 136.103 38.52C140.175 36.5074 142.762 31.4772 145.264 26.6136C147.737 21.8034 150.074 17.2615 153.228 16.7536C160.827 15.5235 163.867 20.6366 168.595 29.7643L169.236 31C174.592 41.2857 174.877 60.8903 175.152 79.8505C175.444 99.9324 175.745 120.699 182.04 132.539C185.113 138.318 188.845 143.32 193.134 147.408C202.546 156.379 213.261 161.257 223.228 161.257Z" fill="url(#paint18_linear_15_13534)"/>
<path d="M223.558 164.252C224.831 164.252 226.089 164.168 227.329 163.996C235.635 162.852 242.78 157.926 247.992 149.751C254.681 139.257 256.527 120.077 258.481 99.7698C260.928 74.3414 263.458 48.0486 275.948 44.3089C283.57 42.027 286.517 36.0547 289.637 29.7332C292.718 23.4872 296.21 16.4084 305.182 10.2553C305.749 9.86563 306.322 9.54389 306.882 9.29866C315.334 5.59618 322.62 18.0663 329.045 29.0676C330.907 32.2568 332.665 35.2687 334.408 37.8211C341.154 47.7029 349.048 45.8139 356.013 44.1492C358.523 43.5494 361.12 42.929 363.615 42.8424C365.557 42.7691 367.39 43.0614 369.226 43.7213C373.225 45.1571 373.157 51.3102 372.571 61.2739C372.056 70.0208 371.473 79.9342 376.756 85.1701C378.43 86.8369 381.228 87.9642 385.025 83.8218C386.485 82.2371 387.991 80.0842 389.585 77.8056C394.715 70.4705 400.529 62.1626 408.687 65.4055C424.3 71.6395 436.387 65.9494 449.18 59.9268C459.027 55.2908 469.204 50.4872 481.716 51.0915C534.303 53.5977 575.453 53.2563 600.713 52.5307C616.138 52.0864 626.984 51.4681 633.366 51.0279C645.909 50.1633 645.986 50.0156 646.729 48.6038L647.44 47.2521L646.843 45.8129L644.792 47.0837L642.719 45.8742C643.101 44.9077 643.814 44.4997 644.174 44.4099C641.76 45.0098 580.769 50.2072 481.895 45.4924C468.441 44.8575 457.805 49.8582 447.52 54.7C434.995 60.5968 424.18 65.6927 410.118 60.0804C399.024 55.6709 391.542 66.3636 386.081 74.1725C384.592 76.3011 383.186 78.3105 381.958 79.6436C380.298 81.4548 379.903 81.063 379.666 80.83C376.235 77.4284 376.706 69.4204 377.162 61.6751C377.728 52.0604 378.369 41.1618 370.528 38.3481C368.221 37.5185 365.916 37.1541 363.484 37.2416C360.608 37.3412 357.821 38.0067 355.126 38.6512C348.323 40.2785 342.949 41.5645 337.949 34.2405C336.316 31.8492 334.607 28.9215 332.797 25.822C325.788 13.8224 317.064 -1.11012 305.325 4.02622C304.522 4.37763 303.714 4.83057 302.922 5.37449C292.891 12.2542 288.899 20.3465 285.691 26.8475C282.741 32.8243 280.611 37.143 274.849 38.8677C259.258 43.5367 256.539 71.793 253.91 99.118C252.115 117.769 250.259 137.056 244.356 146.315C239.922 153.27 233.855 157.458 226.812 158.429C217.089 159.769 205.933 154.989 196.211 145.312C192.405 141.524 188.945 136.95 185.925 131.714C179.58 120.651 179.229 98.3747 178.891 76.8318C178.582 57.1472 178.29 38.5536 173.798 26.4775C170.024 16.3287 164.895 7.24706 153.054 9.55296C147.624 10.607 144.691 16.6099 141.855 22.416C139.839 26.542 137.754 30.8092 135.041 32.3765C132.959 33.5816 130.395 33.3616 127.204 31.7055C113 24.3202 106.528 36.1719 100.269 47.6308C98.5707 50.7422 96.8129 53.9589 94.8837 56.8514C91.6374 61.7173 87.0576 67.45 80.4056 68.609C78.9824 68.8574 77.6277 68.9285 76.4904 68.9645C65.096 69.3334 58.0035 63.7539 50.4767 57.8493C43.4445 52.3321 36.1731 46.6268 25.2274 45.4985C22.0746 45.1723 18.9387 45.2162 15.908 45.2567C14.457 45.2776 13.0122 45.2994 11.5729 45.2753C2.56805 45.1473 -6.02759 45.3048 -14.3364 45.458C-22.5312 45.6113 -30.2691 45.758 -37.9945 45.6221C-92.4653 44.6897 -128.873 44.3778 -141.999 44.288L-142.773 44.2814L-145.108 47.0743C-145.114 49.1975 -143.773 49.7174 -142.793 49.8467L-142.792 49.8849V49.8467C-142.483 49.8884 -142.209 49.8893 -142.026 49.8915C-128.906 49.9813 -92.5121 50.292 -38.0593 51.2256C-30.2664 51.3602 -22.4953 51.2136 -14.2665 51.0615C-5.9881 50.9073 2.57147 50.7486 11.5179 50.8788C12.9933 50.8997 14.4739 50.8811 15.9581 50.8602C18.8827 50.8219 21.9044 50.7793 24.8388 51.0824C34.6428 52.0937 41.123 57.1773 47.9826 62.5586C55.7646 68.6646 63.8156 74.996 76.6115 74.5658C77.8062 74.5276 79.3922 74.4464 81.0581 74.1553C89.2916 72.7215 94.6812 66.0421 98.4561 60.3839C100.525 57.2835 102.344 53.954 104.102 50.7332C110.878 38.3265 115.209 31.564 125.398 36.8588C129.874 39.1811 133.673 39.3682 137.015 37.4388C140.994 35.1393 143.443 30.1268 145.811 25.2795C148.211 20.3666 150.478 15.7261 153.778 15.0858C162.147 13.4605 165.92 18.8793 169.605 28.7883C173.705 39.8136 174.002 58.6862 174.289 76.9382C174.64 99.3184 175.003 122.461 182.154 134.927C185.419 140.587 189.166 145.539 193.298 149.65C202.765 159.072 213.591 164.251 223.558 164.252Z" fill="url(#paint19_linear_15_13534)"/>
<path d="M223.708 167.275C233.329 167.275 241.804 162.311 248.263 152.875C255.896 141.725 257.749 119.703 259.541 98.406C261.648 73.3651 263.827 47.4718 275.125 43.6205C282.807 41.1272 285.643 34.8616 288.646 28.2281C291.646 21.6003 295.047 14.0879 304.217 7.46991C312.735 1.32028 319.453 11.9252 328.018 27.5802C329.903 31.0267 331.683 34.2826 333.45 37.0417C340.396 47.8931 348.63 45.6726 355.894 43.7166C360.431 42.4919 364.718 41.3384 368.85 42.8848L369.009 42.9363C373.052 44.0724 372.854 50.3488 372.048 60.5514C371.335 69.5717 370.528 79.7938 375.786 85.1852C376.912 86.3388 378.219 86.8695 379.573 86.7142C382.748 86.3498 385.337 82.4776 388.614 77.5767C394.81 68.3122 400.155 61.483 407.837 64.7017C423.914 71.4401 436.212 65.5707 449.234 59.3554C459.045 54.6713 469.187 49.8393 481.735 50.2005L481.781 50.2027L481.829 50.2017C550.032 48.8216 599.942 49.2944 626.755 49.5504C633.673 49.6161 638.888 49.6556 642.234 49.6597C647.553 49.6597 647.913 49.6051 648.653 48.2337L649.342 46.961L648.838 45.5536L646.732 46.6819L644.729 45.3106C645.168 44.3694 645.904 44.0236 646.27 43.9687C645.257 44.123 637.511 44.0496 626.791 43.9469C599.964 43.6909 550.031 43.218 481.8 44.598C468.33 44.1975 457.777 49.2593 447.553 54.1381C434.813 60.2198 423.81 65.4712 409.335 59.4035C398.004 54.647 390.515 65.8574 385.045 74.0383C382.974 77.1368 380.396 80.9913 379.141 81.1348C379.098 81.1414 378.998 81.1534 378.751 80.8993C375.341 77.4026 375.997 69.1089 376.63 61.0889C377.416 51.1427 378.306 39.8743 370.126 37.5005C364.863 35.5612 359.797 36.9259 354.899 38.2458C347.826 40.149 342.239 41.6572 337.08 33.5967C335.419 31.0029 333.685 27.8323 331.848 24.4744C324.255 10.5902 314.805 -6.6899 301.869 2.65017C291.621 10.0475 287.736 18.6279 284.615 25.524C281.775 31.7962 279.723 36.3295 273.911 38.2151C259.568 43.105 257.33 69.6891 254.962 97.8349C253.24 118.295 251.46 139.452 244.727 149.288C239.016 157.633 231.525 161.904 222.991 161.662C210.326 161.29 196.478 150.928 185.948 133.942C178.721 122.284 178.4 97.4619 178.09 73.4586C177.741 46.3962 177.411 20.8357 167.553 11.2033C163.87 7.60479 159.12 6.5015 153.442 7.91893C147.907 9.03963 145.068 15.2123 142.322 21.1815C138.234 30.0705 135.545 34.9124 127.835 31.0883C113.328 23.89 106.718 37.3146 100.881 49.1543C95.9094 59.2428 90.7687 69.6739 80.9926 70.635C67.4081 71.9703 59.0687 64.0859 51.0045 56.461C43.2502 49.1281 35.2265 41.5503 23.3582 43.8804H-142.906C-143.416 43.8804 -143.921 43.8804 -144.391 43.9199V43.8804H-144.69V43.9515C-146.011 44.1234 -147 44.7056 -147 46.6809C-147 46.7915 -146.973 49.2725 -144.69 49.4707V49.4837C-144.672 49.4837 -144.56 49.4805 -144.393 49.4837C-142.633 49.4793 -133.186 49.4837 -117.218 49.4837H23.7383L23.928 49.4454C33.9155 47.3965 40.528 53.6492 48.1805 60.8856C56.5308 68.782 65.9966 77.74 81.3629 76.2208C93.4979 75.0268 99.5179 62.8129 104.829 52.037C111.483 38.5349 115.751 31.1442 126.098 36.278C137.948 42.1562 142.798 31.6157 146.338 23.9197C148.655 18.8832 150.844 14.1255 154.283 13.4273C158.699 12.3262 162.072 13.0332 164.671 15.5735C172.841 23.5575 173.17 48.9704 173.487 73.5473C173.809 98.4492 174.141 124.199 182.274 137.317C193.643 155.656 208.823 166.851 222.88 167.263C223.156 167.271 223.433 167.275 223.708 167.275Z" fill="url(#paint20_linear_15_13534)"/>
<defs>
<linearGradient id="paint0_linear_15_13534" x1="610.221" y1="61.7653" x2="-112.047" y2="61.7653" gradientUnits="userSpaceOnUse">
<stop stop-color="#14162D"/>
<stop offset="0.2849" stop-color="#1A142D"/>
<stop offset="0.6505" stop-color="#14162D"/>
<stop offset="1" stop-color="#1A142D"/>
</linearGradient>
<linearGradient id="paint1_linear_15_13534" x1="612.163" y1="64.3228" x2="-113.665" y2="64.3228" gradientUnits="userSpaceOnUse">
<stop stop-color="#151934"/>
<stop offset="0.2849" stop-color="#201434"/>
<stop offset="0.6505" stop-color="#151934"/>
<stop offset="1" stop-color="#201434"/>
</linearGradient>
<linearGradient id="paint2_linear_15_13534" x1="614.104" y1="66.8115" x2="-115.282" y2="66.8115" gradientUnits="userSpaceOnUse">
<stop stop-color="#151C3B"/>
<stop offset="0.2849" stop-color="#26153C"/>
<stop offset="0.6505" stop-color="#151C3B"/>
<stop offset="1" stop-color="#26153C"/>
</linearGradient>
<linearGradient id="paint3_linear_15_13534" x1="616.044" y1="69.3438" x2="-116.899" y2="69.3438" gradientUnits="userSpaceOnUse">
<stop stop-color="#161F43"/>
<stop offset="0.2849" stop-color="#2C1543"/>
<stop offset="0.6505" stop-color="#161F43"/>
<stop offset="1" stop-color="#2C1543"/>
</linearGradient>
<linearGradient id="paint4_linear_15_13534" x1="617.985" y1="71.8661" x2="-118.517" y2="71.8661" gradientUnits="userSpaceOnUse">
<stop stop-color="#16224A"/>
<stop offset="0.2849" stop-color="#32164A"/>
<stop offset="0.6505" stop-color="#16224A"/>
<stop offset="1" stop-color="#32164A"/>
</linearGradient>
<linearGradient id="paint5_linear_15_13534" x1="619.926" y1="74.3412" x2="-120.133" y2="74.3412" gradientUnits="userSpaceOnUse">
<stop stop-color="#162551"/>
<stop offset="0.2849" stop-color="#381651"/>
<stop offset="0.6505" stop-color="#162551"/>
<stop offset="1" stop-color="#381651"/>
</linearGradient>
<linearGradient id="paint6_linear_15_13534" x1="621.866" y1="76.6502" x2="-121.75" y2="76.6502" gradientUnits="userSpaceOnUse">
<stop stop-color="#172858"/>
<stop offset="0.2849" stop-color="#3E1759"/>
<stop offset="0.6505" stop-color="#172858"/>
<stop offset="1" stop-color="#3E1759"/>
</linearGradient>
<linearGradient id="paint7_linear_15_13534" x1="623.805" y1="78.7799" x2="-123.368" y2="78.7799" gradientUnits="userSpaceOnUse">
<stop stop-color="#172B5F"/>
<stop offset="0.2849" stop-color="#441760"/>
<stop offset="0.6505" stop-color="#172B5F"/>
<stop offset="1" stop-color="#441760"/>
</linearGradient>
<linearGradient id="paint8_linear_15_13534" x1="625.741" y1="79.8806" x2="-124.985" y2="79.8806" gradientUnits="userSpaceOnUse">
<stop stop-color="#172E66"/>
<stop offset="0.2849" stop-color="#4A1867"/>
<stop offset="0.6505" stop-color="#172E66"/>
<stop offset="1" stop-color="#4A1867"/>
</linearGradient>
<linearGradient id="paint9_linear_15_13534" x1="627.672" y1="80.5205" x2="-126.602" y2="80.5205" gradientUnits="userSpaceOnUse">
<stop stop-color="#18316D"/>
<stop offset="0.2849" stop-color="#50186E"/>
<stop offset="0.6505" stop-color="#18316D"/>
<stop offset="1" stop-color="#50186E"/>
</linearGradient>
<linearGradient id="paint10_linear_15_13534" x1="629.594" y1="81.1157" x2="-128.22" y2="81.1157" gradientUnits="userSpaceOnUse">
<stop stop-color="#183375"/>
<stop offset="0.2849" stop-color="#561976"/>
<stop offset="0.6505" stop-color="#183375"/>
<stop offset="1" stop-color="#561976"/>
</linearGradient>
<linearGradient id="paint11_linear_15_13534" x1="631.495" y1="81.7016" x2="-129.837" y2="81.7016" gradientUnits="userSpaceOnUse">
<stop stop-color="#19367C"/>
<stop offset="0.2849" stop-color="#5C197D"/>
<stop offset="0.6505" stop-color="#19367C"/>
<stop offset="1" stop-color="#5C197D"/>
</linearGradient>
<linearGradient id="paint12_linear_15_13534" x1="633.341" y1="82.3484" x2="-131.454" y2="82.3484" gradientUnits="userSpaceOnUse">
<stop stop-color="#193983"/>
<stop offset="0.2849" stop-color="#621A84"/>
<stop offset="0.6505" stop-color="#193983"/>
<stop offset="1" stop-color="#621A84"/>
</linearGradient>
<linearGradient id="paint13_linear_15_13534" x1="635.18" y1="82.9605" x2="-133.071" y2="82.9605" gradientUnits="userSpaceOnUse">
<stop stop-color="#193C8A"/>
<stop offset="0.2849" stop-color="#681A8B"/>
<stop offset="0.6505" stop-color="#193C8A"/>
<stop offset="1" stop-color="#681A8B"/>
</linearGradient>
<linearGradient id="paint14_linear_15_13534" x1="637.313" y1="83.4938" x2="-134.688" y2="83.4938" gradientUnits="userSpaceOnUse">
<stop stop-color="#1A3F91"/>
<stop offset="0.2849" stop-color="#6E1B93"/>
<stop offset="0.6505" stop-color="#1A3F91"/>
<stop offset="1" stop-color="#6E1B93"/>
</linearGradient>
<linearGradient id="paint15_linear_15_13534" x1="639.327" y1="83.5008" x2="-136.306" y2="83.5008" gradientUnits="userSpaceOnUse">
<stop stop-color="#1A4298"/>
<stop offset="0.2849" stop-color="#741B9A"/>
<stop offset="0.6505" stop-color="#1A4298"/>
<stop offset="1" stop-color="#741B9A"/>
</linearGradient>
<linearGradient id="paint16_linear_15_13534" x1="641.153" y1="83.5192" x2="-137.924" y2="83.5192" gradientUnits="userSpaceOnUse">
<stop stop-color="#1A459F"/>
<stop offset="0.2849" stop-color="#7A1CA1"/>
<stop offset="0.6505" stop-color="#1A459F"/>
<stop offset="1" stop-color="#7A1CA1"/>
</linearGradient>
<linearGradient id="paint17_linear_15_13534" x1="643.63" y1="83.5457" x2="-139.541" y2="83.5457" gradientUnits="userSpaceOnUse">
<stop stop-color="#1B48A7"/>
<stop offset="0.2849" stop-color="#801CA8"/>
<stop offset="0.6505" stop-color="#1B48A7"/>
<stop offset="1" stop-color="#801CA8"/>
</linearGradient>
<linearGradient id="paint18_linear_15_13534" x1="645.534" y1="83.5801" x2="-141.158" y2="83.5801" gradientUnits="userSpaceOnUse">
<stop stop-color="#1B4BAE"/>
<stop offset="0.2849" stop-color="#861DB0"/>
<stop offset="0.6505" stop-color="#1B4BAE"/>
<stop offset="1" stop-color="#861DB0"/>
</linearGradient>
<linearGradient id="paint19_linear_15_13534" x1="647.44" y1="83.6187" x2="-145.109" y2="83.6187" gradientUnits="userSpaceOnUse">
<stop stop-color="#1C4EB5"/>
<stop offset="0.2849" stop-color="#8C1DB7"/>
<stop offset="0.6505" stop-color="#1C4EB5"/>
<stop offset="1" stop-color="#8C1DB7"/>
</linearGradient>
<linearGradient id="paint20_linear_15_13534" x1="649.341" y1="83.6373" x2="-147" y2="83.6373" gradientUnits="userSpaceOnUse">
<stop stop-color="#1C51BC"/>
<stop offset="0.2849" stop-color="#921EBE"/>
<stop offset="0.6505" stop-color="#1C51BC"/>
<stop offset="1" stop-color="#921EBE"/>
</linearGradient>
</defs>
</svg>
