<svg width="12" height="156" viewBox="0 0 12 156" fill="none" xmlns="http://www.w3.org/2000/svg">
<g clip-path="url(#clip0_138_5226)">
<path d="M3.98486 11C5.08943 11 5.98486 10.1046 5.98486 9C5.98486 7.89543 5.08943 7 3.98486 7C2.88029 7 1.98486 7.89543 1.98486 9C1.98486 10.1046 2.88029 11 3.98486 11Z" stroke="url(#paint0_linear_138_5226)" stroke-width="1.5" stroke-linecap="round" stroke-linejoin="round"/>
<path d="M5.98486 9V2" stroke="url(#paint1_linear_138_5226)" stroke-width="1.5" stroke-linecap="round" stroke-linejoin="round"/>
<path d="M7.30478 1.05524L9.51478 1.79024C10.0498 1.97024 10.4898 2.57524 10.4898 3.14024V3.72524C10.4898 4.49024 9.89978 4.91524 9.17478 4.67524L6.96478 3.94024C6.42978 3.76024 5.98978 3.15524 5.98978 2.59024V2.00024C5.98478 1.24024 6.57978 0.810243 7.30478 1.05524Z" stroke="url(#paint2_linear_138_5226)" stroke-width="1.5" stroke-linecap="round" stroke-linejoin="round"/>
<path d="M3.14008 24.9999C4.00164 24.9999 4.70008 24.3014 4.70008 23.4399C4.70008 22.5783 4.00164 21.8799 3.14008 21.8799C2.27851 21.8799 1.58008 22.5783 1.58008 23.4399C1.58008 24.3014 2.27851 24.9999 3.14008 24.9999Z" stroke="url(#paint3_linear_138_5226)" stroke-width="1.5" stroke-linecap="round" stroke-linejoin="round"/>
<path d="M10.4202 22.4002V16.3002C10.4202 15.0002 9.6052 14.8202 8.7802 15.0452L5.6602 15.8952C5.0902 16.0502 4.7002 16.5002 4.7002 17.1502V18.2352V18.9652V23.4352" stroke="url(#paint4_linear_138_5226)" stroke-width="1.5" stroke-linecap="round" stroke-linejoin="round"/>
<path d="M8.8598 23.9598C9.72137 23.9598 10.4198 23.2614 10.4198 22.3998C10.4198 21.5383 9.72137 20.8398 8.8598 20.8398C7.99824 20.8398 7.2998 21.5383 7.2998 22.3998C7.2998 23.2614 7.99824 23.9598 8.8598 23.9598Z" stroke="url(#paint5_linear_138_5226)" stroke-width="1.5" stroke-linecap="round" stroke-linejoin="round"/>
<path d="M4.7002 18.7602L10.4202 17.2002" stroke="url(#paint6_linear_138_5226)" stroke-width="1.5" stroke-linecap="round" stroke-linejoin="round"/>
<path d="M3.98486 39C5.08943 39 5.98486 38.1046 5.98486 37C5.98486 35.8954 5.08943 35 3.98486 35C2.88029 35 1.98486 35.8954 1.98486 37C1.98486 38.1046 2.88029 39 3.98486 39Z" stroke="url(#paint7_linear_138_5226)" stroke-width="1.5" stroke-linecap="round" stroke-linejoin="round"/>
<path d="M5.98486 37V30" stroke="url(#paint8_linear_138_5226)" stroke-width="1.5" stroke-linecap="round" stroke-linejoin="round"/>
<path d="M7.30478 29.0552L9.51478 29.7902C10.0498 29.9702 10.4898 30.5752 10.4898 31.1402V31.7252C10.4898 32.4902 9.89978 32.9152 9.17478 32.6752L6.96478 31.9402C6.42978 31.7602 5.98978 31.1552 5.98978 30.5902V30.0002C5.98478 29.2402 6.57978 28.8102 7.30478 29.0552Z" stroke="url(#paint9_linear_138_5226)" stroke-width="1.5" stroke-linecap="round" stroke-linejoin="round"/>
<path d="M3.98486 53C5.08943 53 5.98486 52.1046 5.98486 51C5.98486 49.8954 5.08943 49 3.98486 49C2.88029 49 1.98486 49.8954 1.98486 51C1.98486 52.1046 2.88029 53 3.98486 53Z" stroke="url(#paint10_linear_138_5226)" stroke-width="1.5" stroke-linecap="round" stroke-linejoin="round"/>
<path d="M5.98486 51V44" stroke="url(#paint11_linear_138_5226)" stroke-width="1.5" stroke-linecap="round" stroke-linejoin="round"/>
<path d="M7.30478 43.0552L9.51478 43.7902C10.0498 43.9702 10.4898 44.5752 10.4898 45.1402V45.7252C10.4898 46.4902 9.89978 46.9152 9.17478 46.6752L6.96478 45.9402C6.42978 45.7602 5.98978 45.1552 5.98978 44.5902V44.0002C5.98478 43.2402 6.57978 42.8102 7.30478 43.0552Z" stroke="url(#paint12_linear_138_5226)" stroke-width="1.5" stroke-linecap="round" stroke-linejoin="round"/>
<path d="M3.14008 66.9999C4.00164 66.9999 4.70008 66.3014 4.70008 65.4399C4.70008 64.5783 4.00164 63.8799 3.14008 63.8799C2.27851 63.8799 1.58008 64.5783 1.58008 65.4399C1.58008 66.3014 2.27851 66.9999 3.14008 66.9999Z" stroke="url(#paint13_linear_138_5226)" stroke-width="1.5" stroke-linecap="round" stroke-linejoin="round"/>
<path d="M10.4202 64.4002V58.3002C10.4202 57.0002 9.6052 56.8202 8.7802 57.0452L5.6602 57.8952C5.0902 58.0502 4.7002 58.5002 4.7002 59.1502V60.2352V60.9652V65.4352" stroke="url(#paint14_linear_138_5226)" stroke-width="1.5" stroke-linecap="round" stroke-linejoin="round"/>
<path d="M8.8598 65.9598C9.72137 65.9598 10.4198 65.2614 10.4198 64.3998C10.4198 63.5383 9.72137 62.8398 8.8598 62.8398C7.99824 62.8398 7.2998 63.5383 7.2998 64.3998C7.2998 65.2614 7.99824 65.9598 8.8598 65.9598Z" stroke="url(#paint15_linear_138_5226)" stroke-width="1.5" stroke-linecap="round" stroke-linejoin="round"/>
<path d="M4.7002 60.7602L10.4202 59.2002" stroke="url(#paint16_linear_138_5226)" stroke-width="1.5" stroke-linecap="round" stroke-linejoin="round"/>
<path d="M3.98486 81C5.08943 81 5.98486 80.1046 5.98486 79C5.98486 77.8954 5.08943 77 3.98486 77C2.88029 77 1.98486 77.8954 1.98486 79C1.98486 80.1046 2.88029 81 3.98486 81Z" stroke="url(#paint17_linear_138_5226)" stroke-width="1.5" stroke-linecap="round" stroke-linejoin="round"/>
<path d="M5.98486 79V72" stroke="url(#paint18_linear_138_5226)" stroke-width="1.5" stroke-linecap="round" stroke-linejoin="round"/>
<path d="M7.30478 71.0552L9.51478 71.7902C10.0498 71.9702 10.4898 72.5752 10.4898 73.1402V73.7252C10.4898 74.4902 9.89978 74.9152 9.17478 74.6752L6.96478 73.9402C6.42978 73.7602 5.98978 73.1552 5.98978 72.5902V72.0002C5.98478 71.2402 6.57978 70.8102 7.30478 71.0552Z" stroke="url(#paint19_linear_138_5226)" stroke-width="1.5" stroke-linecap="round" stroke-linejoin="round"/>
<path d="M3.14008 94.9999C4.00164 94.9999 4.70008 94.3014 4.70008 93.4399C4.70008 92.5783 4.00164 91.8799 3.14008 91.8799C2.27851 91.8799 1.58008 92.5783 1.58008 93.4399C1.58008 94.3014 2.27851 94.9999 3.14008 94.9999Z" stroke="url(#paint20_linear_138_5226)" stroke-width="1.5" stroke-linecap="round" stroke-linejoin="round"/>
<path d="M10.4202 92.4002V86.3002C10.4202 85.0002 9.6052 84.8202 8.7802 85.0452L5.6602 85.8952C5.0902 86.0502 4.7002 86.5002 4.7002 87.1502V88.2352V88.9652V93.4352" stroke="url(#paint21_linear_138_5226)" stroke-width="1.5" stroke-linecap="round" stroke-linejoin="round"/>
<path d="M8.8598 93.9598C9.72137 93.9598 10.4198 93.2614 10.4198 92.3998C10.4198 91.5383 9.72137 90.8398 8.8598 90.8398C7.99824 90.8398 7.2998 91.5383 7.2998 92.3998C7.2998 93.2614 7.99824 93.9598 8.8598 93.9598Z" stroke="url(#paint22_linear_138_5226)" stroke-width="1.5" stroke-linecap="round" stroke-linejoin="round"/>
<path d="M4.7002 88.7602L10.4202 87.2002" stroke="url(#paint23_linear_138_5226)" stroke-width="1.5" stroke-linecap="round" stroke-linejoin="round"/>
<path d="M3.98486 109C5.08943 109 5.98486 108.105 5.98486 107C5.98486 105.895 5.08943 105 3.98486 105C2.88029 105 1.98486 105.895 1.98486 107C1.98486 108.105 2.88029 109 3.98486 109Z" stroke="url(#paint24_linear_138_5226)" stroke-width="1.5" stroke-linecap="round" stroke-linejoin="round"/>
<path d="M5.98486 107V100" stroke="url(#paint25_linear_138_5226)" stroke-width="1.5" stroke-linecap="round" stroke-linejoin="round"/>
<path d="M7.30478 99.0552L9.51478 99.7902C10.0498 99.9702 10.4898 100.575 10.4898 101.14V101.725C10.4898 102.49 9.89978 102.915 9.17478 102.675L6.96478 101.94C6.42978 101.76 5.98978 101.155 5.98978 100.59V100C5.98478 99.2402 6.57978 98.8102 7.30478 99.0552Z" stroke="url(#paint26_linear_138_5226)" stroke-width="1.5" stroke-linecap="round" stroke-linejoin="round"/>
<path d="M3.14008 123C4.00164 123 4.70008 122.301 4.70008 121.44C4.70008 120.578 4.00164 119.88 3.14008 119.88C2.27851 119.88 1.58008 120.578 1.58008 121.44C1.58008 122.301 2.27851 123 3.14008 123Z" stroke="url(#paint27_linear_138_5226)" stroke-width="1.5" stroke-linecap="round" stroke-linejoin="round"/>
<path d="M10.4202 120.4V114.3C10.4202 113 9.6052 112.82 8.7802 113.045L5.6602 113.895C5.0902 114.05 4.7002 114.5 4.7002 115.15V116.235V116.965V121.435" stroke="url(#paint28_linear_138_5226)" stroke-width="1.5" stroke-linecap="round" stroke-linejoin="round"/>
<path d="M8.8598 121.96C9.72137 121.96 10.4198 121.261 10.4198 120.4C10.4198 119.538 9.72137 118.84 8.8598 118.84C7.99824 118.84 7.2998 119.538 7.2998 120.4C7.2998 121.261 7.99824 121.96 8.8598 121.96Z" stroke="url(#paint29_linear_138_5226)" stroke-width="1.5" stroke-linecap="round" stroke-linejoin="round"/>
<path d="M4.7002 116.76L10.4202 115.2" stroke="url(#paint30_linear_138_5226)" stroke-width="1.5" stroke-linecap="round" stroke-linejoin="round"/>
<path d="M3.98486 137C5.08943 137 5.98486 136.105 5.98486 135C5.98486 133.895 5.08943 133 3.98486 133C2.88029 133 1.98486 133.895 1.98486 135C1.98486 136.105 2.88029 137 3.98486 137Z" stroke="url(#paint31_linear_138_5226)" stroke-width="1.5" stroke-linecap="round" stroke-linejoin="round"/>
<path d="M5.98486 135V128" stroke="url(#paint32_linear_138_5226)" stroke-width="1.5" stroke-linecap="round" stroke-linejoin="round"/>
<path d="M7.30478 127.055L9.51478 127.79C10.0498 127.97 10.4898 128.575 10.4898 129.14V129.725C10.4898 130.49 9.89978 130.915 9.17478 130.675L6.96478 129.94C6.42978 129.76 5.98978 129.155 5.98978 128.59V128C5.98478 127.24 6.57978 126.81 7.30478 127.055Z" stroke="url(#paint33_linear_138_5226)" stroke-width="1.5" stroke-linecap="round" stroke-linejoin="round"/>
<path d="M3.14008 151C4.00164 151 4.70008 150.301 4.70008 149.44C4.70008 148.578 4.00164 147.88 3.14008 147.88C2.27851 147.88 1.58008 148.578 1.58008 149.44C1.58008 150.301 2.27851 151 3.14008 151Z" stroke="url(#paint34_linear_138_5226)" stroke-width="1.5" stroke-linecap="round" stroke-linejoin="round"/>
<path d="M10.4202 148.4V142.3C10.4202 141 9.6052 140.82 8.7802 141.045L5.6602 141.895C5.0902 142.05 4.7002 142.5 4.7002 143.15V144.235V144.965V149.435" stroke="url(#paint35_linear_138_5226)" stroke-width="1.5" stroke-linecap="round" stroke-linejoin="round"/>
<path d="M8.8598 149.96C9.72137 149.96 10.4198 149.261 10.4198 148.4C10.4198 147.538 9.72137 146.84 8.8598 146.84C7.99824 146.84 7.2998 147.538 7.2998 148.4C7.2998 149.261 7.99824 149.96 8.8598 149.96Z" stroke="url(#paint36_linear_138_5226)" stroke-width="1.5" stroke-linecap="round" stroke-linejoin="round"/>
<path d="M4.7002 144.76L10.4202 143.2" stroke="url(#paint37_linear_138_5226)" stroke-width="1.5" stroke-linecap="round" stroke-linejoin="round"/>
<path d="M5.98486 163V156" stroke="url(#paint38_linear_138_5226)" stroke-width="1.5" stroke-linecap="round" stroke-linejoin="round"/>
<path d="M7.30478 155.055L9.51478 155.79C10.0498 155.97 10.4898 156.575 10.4898 157.14V157.725C10.4898 158.49 9.89978 158.915 9.17478 158.675L6.96478 157.94C6.42978 157.76 5.98978 157.155 5.98978 156.59V156C5.98478 155.24 6.57978 154.81 7.30478 155.055Z" stroke="url(#paint39_linear_138_5226)" stroke-width="1.5" stroke-linecap="round" stroke-linejoin="round"/>
</g>
<defs>
<linearGradient id="paint0_linear_138_5226" x1="3.98486" y1="7" x2="3.98486" y2="11" gradientUnits="userSpaceOnUse">
<stop stop-color="#E85EFF"/>
<stop offset="1" stop-color="#861DB0"/>
</linearGradient>
<linearGradient id="paint1_linear_138_5226" x1="6.48486" y1="2" x2="6.48486" y2="9" gradientUnits="userSpaceOnUse">
<stop stop-color="#E85EFF"/>
<stop offset="1" stop-color="#861DB0"/>
</linearGradient>
<linearGradient id="paint2_linear_138_5226" x1="8.23976" y1="0.986328" x2="8.23976" y2="4.74225" gradientUnits="userSpaceOnUse">
<stop stop-color="#E85EFF"/>
<stop offset="1" stop-color="#861DB0"/>
</linearGradient>
<linearGradient id="paint3_linear_138_5226" x1="3.14008" y1="21.8799" x2="3.14008" y2="24.9999" gradientUnits="userSpaceOnUse">
<stop stop-color="#E85EFF"/>
<stop offset="1" stop-color="#861DB0"/>
</linearGradient>
<linearGradient id="paint4_linear_138_5226" x1="7.5602" y1="14.9629" x2="7.5602" y2="23.4352" gradientUnits="userSpaceOnUse">
<stop stop-color="#E85EFF"/>
<stop offset="1" stop-color="#861DB0"/>
</linearGradient>
<linearGradient id="paint5_linear_138_5226" x1="8.8598" y1="20.8398" x2="8.8598" y2="23.9598" gradientUnits="userSpaceOnUse">
<stop stop-color="#E85EFF"/>
<stop offset="1" stop-color="#861DB0"/>
</linearGradient>
<linearGradient id="paint6_linear_138_5226" x1="7.5602" y1="17.2002" x2="7.5602" y2="18.7602" gradientUnits="userSpaceOnUse">
<stop stop-color="#E85EFF"/>
<stop offset="1" stop-color="#861DB0"/>
</linearGradient>
<linearGradient id="paint7_linear_138_5226" x1="3.98486" y1="35" x2="3.98486" y2="39" gradientUnits="userSpaceOnUse">
<stop stop-color="#E85EFF"/>
<stop offset="1" stop-color="#861DB0"/>
</linearGradient>
<linearGradient id="paint8_linear_138_5226" x1="6.48486" y1="30" x2="6.48486" y2="37" gradientUnits="userSpaceOnUse">
<stop stop-color="#E85EFF"/>
<stop offset="1" stop-color="#861DB0"/>
</linearGradient>
<linearGradient id="paint9_linear_138_5226" x1="8.23976" y1="28.9863" x2="8.23976" y2="32.7423" gradientUnits="userSpaceOnUse">
<stop stop-color="#E85EFF"/>
<stop offset="1" stop-color="#861DB0"/>
</linearGradient>
<linearGradient id="paint10_linear_138_5226" x1="3.98486" y1="49" x2="3.98486" y2="53" gradientUnits="userSpaceOnUse">
<stop stop-color="#E85EFF"/>
<stop offset="1" stop-color="#861DB0"/>
</linearGradient>
<linearGradient id="paint11_linear_138_5226" x1="6.48486" y1="44" x2="6.48486" y2="51" gradientUnits="userSpaceOnUse">
<stop stop-color="#E85EFF"/>
<stop offset="1" stop-color="#861DB0"/>
</linearGradient>
<linearGradient id="paint12_linear_138_5226" x1="8.23976" y1="42.9863" x2="8.23976" y2="46.7423" gradientUnits="userSpaceOnUse">
<stop stop-color="#E85EFF"/>
<stop offset="1" stop-color="#861DB0"/>
</linearGradient>
<linearGradient id="paint13_linear_138_5226" x1="3.14008" y1="63.8799" x2="3.14008" y2="66.9999" gradientUnits="userSpaceOnUse">
<stop stop-color="#E85EFF"/>
<stop offset="1" stop-color="#861DB0"/>
</linearGradient>
<linearGradient id="paint14_linear_138_5226" x1="7.5602" y1="56.9629" x2="7.5602" y2="65.4352" gradientUnits="userSpaceOnUse">
<stop stop-color="#E85EFF"/>
<stop offset="1" stop-color="#861DB0"/>
</linearGradient>
<linearGradient id="paint15_linear_138_5226" x1="8.8598" y1="62.8398" x2="8.8598" y2="65.9598" gradientUnits="userSpaceOnUse">
<stop stop-color="#E85EFF"/>
<stop offset="1" stop-color="#861DB0"/>
</linearGradient>
<linearGradient id="paint16_linear_138_5226" x1="7.5602" y1="59.2002" x2="7.5602" y2="60.7602" gradientUnits="userSpaceOnUse">
<stop stop-color="#E85EFF"/>
<stop offset="1" stop-color="#861DB0"/>
</linearGradient>
<linearGradient id="paint17_linear_138_5226" x1="3.98486" y1="77" x2="3.98486" y2="81" gradientUnits="userSpaceOnUse">
<stop stop-color="#E85EFF"/>
<stop offset="1" stop-color="#861DB0"/>
</linearGradient>
<linearGradient id="paint18_linear_138_5226" x1="6.48486" y1="72" x2="6.48486" y2="79" gradientUnits="userSpaceOnUse">
<stop stop-color="#E85EFF"/>
<stop offset="1" stop-color="#861DB0"/>
</linearGradient>
<linearGradient id="paint19_linear_138_5226" x1="8.23976" y1="70.9863" x2="8.23976" y2="74.7423" gradientUnits="userSpaceOnUse">
<stop stop-color="#E85EFF"/>
<stop offset="1" stop-color="#861DB0"/>
</linearGradient>
<linearGradient id="paint20_linear_138_5226" x1="3.14008" y1="91.8799" x2="3.14008" y2="94.9999" gradientUnits="userSpaceOnUse">
<stop stop-color="#E85EFF"/>
<stop offset="1" stop-color="#861DB0"/>
</linearGradient>
<linearGradient id="paint21_linear_138_5226" x1="7.5602" y1="84.9629" x2="7.5602" y2="93.4352" gradientUnits="userSpaceOnUse">
<stop stop-color="#E85EFF"/>
<stop offset="1" stop-color="#861DB0"/>
</linearGradient>
<linearGradient id="paint22_linear_138_5226" x1="8.8598" y1="90.8398" x2="8.8598" y2="93.9598" gradientUnits="userSpaceOnUse">
<stop stop-color="#E85EFF"/>
<stop offset="1" stop-color="#861DB0"/>
</linearGradient>
<linearGradient id="paint23_linear_138_5226" x1="7.5602" y1="87.2002" x2="7.5602" y2="88.7602" gradientUnits="userSpaceOnUse">
<stop stop-color="#E85EFF"/>
<stop offset="1" stop-color="#861DB0"/>
</linearGradient>
<linearGradient id="paint24_linear_138_5226" x1="3.98486" y1="105" x2="3.98486" y2="109" gradientUnits="userSpaceOnUse">
<stop stop-color="#E85EFF"/>
<stop offset="1" stop-color="#861DB0"/>
</linearGradient>
<linearGradient id="paint25_linear_138_5226" x1="6.48486" y1="100" x2="6.48486" y2="107" gradientUnits="userSpaceOnUse">
<stop stop-color="#E85EFF"/>
<stop offset="1" stop-color="#861DB0"/>
</linearGradient>
<linearGradient id="paint26_linear_138_5226" x1="8.23976" y1="98.9863" x2="8.23976" y2="102.742" gradientUnits="userSpaceOnUse">
<stop stop-color="#E85EFF"/>
<stop offset="1" stop-color="#861DB0"/>
</linearGradient>
<linearGradient id="paint27_linear_138_5226" x1="3.14008" y1="119.88" x2="3.14008" y2="123" gradientUnits="userSpaceOnUse">
<stop stop-color="#E85EFF"/>
<stop offset="1" stop-color="#861DB0"/>
</linearGradient>
<linearGradient id="paint28_linear_138_5226" x1="7.5602" y1="112.963" x2="7.5602" y2="121.435" gradientUnits="userSpaceOnUse">
<stop stop-color="#E85EFF"/>
<stop offset="1" stop-color="#861DB0"/>
</linearGradient>
<linearGradient id="paint29_linear_138_5226" x1="8.8598" y1="118.84" x2="8.8598" y2="121.96" gradientUnits="userSpaceOnUse">
<stop stop-color="#E85EFF"/>
<stop offset="1" stop-color="#861DB0"/>
</linearGradient>
<linearGradient id="paint30_linear_138_5226" x1="7.5602" y1="115.2" x2="7.5602" y2="116.76" gradientUnits="userSpaceOnUse">
<stop stop-color="#E85EFF"/>
<stop offset="1" stop-color="#861DB0"/>
</linearGradient>
<linearGradient id="paint31_linear_138_5226" x1="3.98486" y1="133" x2="3.98486" y2="137" gradientUnits="userSpaceOnUse">
<stop stop-color="#E85EFF"/>
<stop offset="1" stop-color="#861DB0"/>
</linearGradient>
<linearGradient id="paint32_linear_138_5226" x1="6.48486" y1="128" x2="6.48486" y2="135" gradientUnits="userSpaceOnUse">
<stop stop-color="#E85EFF"/>
<stop offset="1" stop-color="#861DB0"/>
</linearGradient>
<linearGradient id="paint33_linear_138_5226" x1="8.23976" y1="126.986" x2="8.23976" y2="130.742" gradientUnits="userSpaceOnUse">
<stop stop-color="#E85EFF"/>
<stop offset="1" stop-color="#861DB0"/>
</linearGradient>
<linearGradient id="paint34_linear_138_5226" x1="3.14008" y1="147.88" x2="3.14008" y2="151" gradientUnits="userSpaceOnUse">
<stop stop-color="#E85EFF"/>
<stop offset="1" stop-color="#861DB0"/>
</linearGradient>
<linearGradient id="paint35_linear_138_5226" x1="7.5602" y1="140.963" x2="7.5602" y2="149.435" gradientUnits="userSpaceOnUse">
<stop stop-color="#E85EFF"/>
<stop offset="1" stop-color="#861DB0"/>
</linearGradient>
<linearGradient id="paint36_linear_138_5226" x1="8.8598" y1="146.84" x2="8.8598" y2="149.96" gradientUnits="userSpaceOnUse">
<stop stop-color="#E85EFF"/>
<stop offset="1" stop-color="#861DB0"/>
</linearGradient>
<linearGradient id="paint37_linear_138_5226" x1="7.5602" y1="143.2" x2="7.5602" y2="144.76" gradientUnits="userSpaceOnUse">
<stop stop-color="#E85EFF"/>
<stop offset="1" stop-color="#861DB0"/>
</linearGradient>
<linearGradient id="paint38_linear_138_5226" x1="6.48486" y1="156" x2="6.48486" y2="163" gradientUnits="userSpaceOnUse">
<stop stop-color="#E85EFF"/>
<stop offset="1" stop-color="#861DB0"/>
</linearGradient>
<linearGradient id="paint39_linear_138_5226" x1="8.23976" y1="154.986" x2="8.23976" y2="158.742" gradientUnits="userSpaceOnUse">
<stop stop-color="#E85EFF"/>
<stop offset="1" stop-color="#861DB0"/>
</linearGradient>
<clipPath id="clip0_138_5226">
<rect width="12" height="156" fill="white"/>
</clipPath>
</defs>
</svg>
