<svg width="35" height="41" viewBox="0 0 35 41" fill="none" xmlns="http://www.w3.org/2000/svg">
<g filter="url(#filter0_d_1109_2813)">
<path fill-rule="evenodd" clip-rule="evenodd" d="M17.5461 4.8291C14.3394 4.83094 11.2645 6.1244 9.11344 8.37644C7.02557 10.5641 5.92298 13.4969 6.00419 16.6358C6.09622 20.1574 7.76904 23.3625 9.39315 26.0359C11.7716 29.9457 16.1999 33.7451 16.3876 33.9051C16.7233 34.1922 17.1347 34.3357 17.5461 34.3357C17.9576 34.3357 18.369 34.1922 18.7047 33.9051C18.8923 33.7451 23.3189 29.9457 25.6991 26.034C27.2276 23.5207 28.9943 20.1776 29.0881 16.6358C29.1675 13.4969 28.0649 10.5641 25.9788 8.37644C23.826 6.1244 20.7528 4.83094 17.5461 4.8291Z" fill="#B076CA"/>
</g>
<path fill-rule="evenodd" clip-rule="evenodd" d="M15.1415 12.9281C14.852 12.9997 14.6488 13.2665 14.6488 13.5732V16.2758V17.9315H14.2467C13.3402 17.9315 12.5134 18.6045 12.4235 19.5345C12.3197 20.6047 13.1319 21.5068 14.148 21.5068H14.966C15.8966 21.5068 16.6503 20.729 16.6503 19.7704V19.4433V17.9315V15.7776L20.6761 14.7881V16.9676H20.3925C19.4853 16.9676 18.6592 17.6399 18.5686 18.5706C18.4648 19.6408 19.2769 20.5429 20.2931 20.5429H20.9934C21.924 20.5429 22.6777 19.7651 22.6777 18.8058V18.4787V16.9676V14.2899V11.9077C22.6777 11.4781 22.2881 11.1616 21.8831 11.2626L15.1415 12.9281Z" fill="white"/>
<defs>
<filter id="filter0_d_1109_2813" x="0.868422" y="0.980418" width="33.3552" height="39.7695" filterUnits="userSpaceOnUse" color-interpolation-filters="sRGB">
<feFlood flood-opacity="0" result="BackgroundImageFix"/>
<feColorMatrix in="SourceAlpha" type="matrix" values="0 0 0 0 0 0 0 0 0 0 0 0 0 0 0 0 0 0 127 0" result="hardAlpha"/>
<feOffset dy="1.28289"/>
<feGaussianBlur stdDeviation="2.56579"/>
<feColorMatrix type="matrix" values="0 0 0 0 0.156032 0 0 0 0 0.152883 0 0 0 0 0.199332 0 0 0 0.0908271 0"/>
<feBlend mode="normal" in2="BackgroundImageFix" result="effect1_dropShadow_1109_2813"/>
<feBlend mode="normal" in="SourceGraphic" in2="effect1_dropShadow_1109_2813" result="shape"/>
</filter>
</defs>
</svg>
