<svg width="75" height="67" viewBox="0 0 75 67" fill="none" xmlns="http://www.w3.org/2000/svg">
<g opacity="0.2" filter="url(#filter0_f_1015_2766)">
<path fill-rule="evenodd" clip-rule="evenodd" d="M37.6187 38.25C42.5784 38.25 46.599 35.9525 46.599 33.1184C46.599 30.2843 42.5784 27.9868 37.6187 27.9868C32.659 27.9868 28.6384 30.2843 28.6384 33.1184C28.6384 35.9525 32.659 38.25 37.6187 38.25Z" fill="#21242A"/>
</g>
<g filter="url(#filter1_d_1015_2766)">
<path fill-rule="evenodd" clip-rule="evenodd" d="M37.6189 6.17773C34.4122 6.17957 31.3372 7.47303 29.1862 9.72507C27.0983 11.9127 25.9957 14.8455 26.0769 17.9844C26.169 21.506 27.8418 24.7111 29.4659 27.3845C31.8443 31.2943 36.2727 35.0937 36.4604 35.2538C36.796 35.5408 37.2075 35.6843 37.6189 35.6843C38.0303 35.6843 38.4418 35.5408 38.7774 35.2538C38.9651 35.0937 43.3917 31.2943 45.7719 27.3827C47.3003 24.8693 49.067 21.5262 49.1608 17.9844C49.2402 14.8455 48.1377 11.9127 46.0516 9.72507C43.8988 7.47303 40.8256 6.17957 37.6189 6.17773Z" fill="#B076CA"/>
</g>
<path fill-rule="evenodd" clip-rule="evenodd" d="M35.2142 14.2767C34.9248 14.3483 34.7215 14.6151 34.7215 14.9218V17.6244V19.2802H34.3195C33.413 19.2802 32.5862 19.9532 32.4963 20.8832C32.3925 21.9533 33.2046 22.8554 34.2208 22.8554H35.0388C35.9694 22.8554 36.7231 22.0777 36.7231 21.119V20.792V19.2802V17.1263L40.7489 16.1367V18.3163H40.4653C39.558 18.3163 38.732 18.9885 38.6413 19.9193C38.5375 20.9894 39.3497 21.8915 40.3658 21.8915H41.0662C41.9968 21.8915 42.7505 21.1138 42.7505 20.1544V19.8273V18.3163V15.6386V13.2563C42.7505 12.8267 42.3608 12.5102 41.9558 12.6112L35.2142 14.2767Z" fill="white"/>
<defs>
<filter id="filter0_f_1015_2766" x="0.740278" y="0.0886669" width="73.7567" height="66.0595" filterUnits="userSpaceOnUse" color-interpolation-filters="sRGB">
<feFlood flood-opacity="0" result="BackgroundImageFix"/>
<feBlend mode="normal" in="SourceGraphic" in2="BackgroundImageFix" result="shape"/>
<feGaussianBlur stdDeviation="13.9491" result="effect1_foregroundBlur_1015_2766"/>
</filter>
<filter id="filter1_d_1015_2766" x="20.9412" y="2.32905" width="33.3552" height="39.7695" filterUnits="userSpaceOnUse" color-interpolation-filters="sRGB">
<feFlood flood-opacity="0" result="BackgroundImageFix"/>
<feColorMatrix in="SourceAlpha" type="matrix" values="0 0 0 0 0 0 0 0 0 0 0 0 0 0 0 0 0 0 127 0" result="hardAlpha"/>
<feOffset dy="1.28289"/>
<feGaussianBlur stdDeviation="2.56579"/>
<feColorMatrix type="matrix" values="0 0 0 0 0.156032 0 0 0 0 0.152883 0 0 0 0 0.199332 0 0 0 0.0908271 0"/>
<feBlend mode="normal" in2="BackgroundImageFix" result="effect1_dropShadow_1015_2766"/>
<feBlend mode="normal" in="SourceGraphic" in2="effect1_dropShadow_1015_2766" result="shape"/>
</filter>
</defs>
</svg>
