<svg width="23" height="22" viewBox="0 0 23 22" fill="none" xmlns="http://www.w3.org/2000/svg">
<path fill-rule="evenodd" clip-rule="evenodd" d="M8.45756 6.19636C8.08311 6.28897 7.82023 6.63405 7.82023 7.03081V10.5265V12.6682H7.30016C6.12764 12.6682 5.05819 13.5387 4.94188 14.7417C4.80761 16.1259 5.85815 17.2928 7.17251 17.2928H8.23062C9.43434 17.2928 10.4092 16.2868 10.4092 15.0468V14.6237V12.6682V9.88218L15.6166 8.60223V11.4214H15.2497C14.0762 11.4214 13.0077 12.291 12.8904 13.4949C12.7562 14.8791 13.8067 16.046 15.1211 16.046H16.0269C17.2307 16.046 18.2056 15.04 18.2056 13.799V13.376V11.4214V7.95787V4.87644C18.2056 4.32079 17.7016 3.91136 17.1777 4.04199L8.45756 6.19636Z" fill="white"/>
<mask id="mask0_532_1831" style="mask-type:luminance" maskUnits="userSpaceOnUse" x="4" y="4" width="15" height="14">
<path fill-rule="evenodd" clip-rule="evenodd" d="M8.45756 6.19636C8.08311 6.28897 7.82023 6.63405 7.82023 7.03081V10.5265V12.6682H7.30016C6.12764 12.6682 5.05819 13.5387 4.94188 14.7417C4.80761 16.1259 5.85815 17.2928 7.17251 17.2928H8.23062C9.43434 17.2928 10.4092 16.2868 10.4092 15.0468V14.6237V12.6682V9.88218L15.6166 8.60223V11.4214H15.2497C14.0762 11.4214 13.0077 12.291 12.8904 13.4949C12.7562 14.8791 13.8067 16.046 15.1211 16.046H16.0269C17.2307 16.046 18.2056 15.04 18.2056 13.799V13.376V11.4214V7.95787V4.87644C18.2056 4.32079 17.7016 3.91136 17.1777 4.04199L8.45756 6.19636Z" fill="white"/>
</mask>
<g mask="url(#mask0_532_1831)">
<rect x="-52.1533" y="-53.0661" width="127.442" height="127.442" fill="white"/>
</g>
</svg>
