<svg width="34" height="22" viewBox="0 0 34 22" fill="none" xmlns="http://www.w3.org/2000/svg">
<path d="M0.0856934 5C0.0856934 4.06812 0.0856934 3.60218 0.237934 3.23463C0.440922 2.74458 0.83027 2.35523 1.32033 2.15224C1.68787 2 2.15381 2 3.08569 2C4.01758 2 4.48352 2 4.85106 2.15224C5.34112 2.35523 5.73046 2.74458 5.93345 3.23463C6.08569 3.60218 6.08569 4.06812 6.08569 5V12C6.08569 13.8856 6.08569 14.8284 6.67148 15.4142C7.25727 16 8.20008 16 10.0857 16H20.0857C21.9713 16 22.9141 16 23.4999 15.4142C24.0857 14.8284 24.0857 13.8856 24.0857 12V5C24.0857 4.06812 24.0857 3.60218 24.2379 3.23463C24.4409 2.74458 24.8303 2.35523 25.3203 2.15224C25.6879 2 26.1538 2 27.0857 2C28.0176 2 28.4835 2 28.8511 2.15224C29.3411 2.35523 29.7305 2.74458 29.9335 3.23463C30.0857 3.60218 30.0857 4.06812 30.0857 5V12C30.0857 16.714 30.0857 19.0711 28.6212 20.5355C27.1568 22 24.7997 22 20.0857 22H10.0857C5.37165 22 3.01463 22 1.55016 20.5355C0.0856934 19.0711 0.0856934 16.714 0.0856934 12V5Z" fill="#C4C4C4"/>
<path d="M7.08569 6C7.08569 3.17157 7.08569 1.75736 7.96437 0.87868C8.84305 0 10.2573 0 13.0857 0H17.0857C19.9141 0 21.3283 0 22.207 0.87868C23.0857 1.75736 23.0857 3.17157 23.0857 6V13C23.0857 13.9428 23.0857 14.4142 22.7928 14.7071C22.4999 15 22.0285 15 21.0857 15H9.08569C8.14288 15 7.67148 15 7.37859 14.7071C7.08569 14.4142 7.08569 13.9428 7.08569 13V6Z" fill="#C4C4C4"/>
</svg>
