<svg width="282" height="182" viewBox="0 0 282 182" fill="none" xmlns="http://www.w3.org/2000/svg">
<path d="M235.1 49C232.1 47.3 228.7 46.5 225.2 46.5H224.6C221.2 46.5 217.8 47.3 214.7 49C211.4 51.8 210.3 57.3 210.3 63C213.2 63.5 216 64.6 218.6 66.1L219 66.4C221.8 69 223.8 72.4 224.6 76.1C225.4 72.4 227.4 69 230.2 66.4L230.6 66.1C233.3 64.5 236.3 63.4 239.4 62.9C239.4 57.2 238.4 51.8 235.1 49Z" fill="#1C1C1C"/>
<path d="M201.6 49C198.6 47.3 195.2 46.5 191.7 46.5H191.1C187.7 46.5 184.3 47.3 181.2 49C177.3 52.3 176.6 59.4 176.9 66.2L177.1 66.3C179.9 68.9 181.9 72.3 182.7 76C183.5 72.3 185.5 68.9 188.3 66.3L188.7 66C191.9 64.1 195.5 62.9 199.2 62.5C201.4 62.2 203.6 62.1 205.8 62.2C205.9 56.9 204.8 51.7 201.6 49Z" fill="#1C1C1C"/>
<path d="M168.2 49C165.2 47.3 161.8 46.5 158.3 46.5H157.7C154.3 46.5 150.9 47.3 147.8 49C143.2 52.9 143 62 143.7 69.6C144.5 68.4 145.5 67.3 146.6 66.3L147 66C150.2 64.1 153.8 62.9 157.5 62.5C160.4 62.1 163.3 62.1 166.2 62.5C168.4 62.8 170.5 63.3 172.5 64C172.7 58 171.7 52 168.2 49Z" fill="#1C1C1C"/>
<path d="M134.7 49C131.7 47.3 128.3 46.5 124.9 46.5H124.3C120.9 46.5 117.5 47.3 114.4 49C110.9 52 109.9 57.9 110 63.9C111.8 63.3 113.8 62.9 115.7 62.6C118.6 62.2 121.5 62.2 124.4 62.6C128.1 63 131.7 64.2 134.9 66.1L135.3 66.4C136.7 67.6 137.8 68.9 138.7 70.5C138.7 70.3 138.8 70.2 138.8 70C139.6 62.3 139.4 53 134.7 49Z" fill="#1C1C1C"/>
<path d="M101.3 49C98.2996 47.3 94.8996 46.5 91.3996 46.5H90.7996C87.3996 46.5 83.9996 47.3 80.9996 49C77.7996 51.7 76.6996 56.8 76.5996 62.3C78.5996 62.3 80.5996 62.4 82.5996 62.6C86.2996 63 89.8996 64.2 93.1996 66.1L93.5996 66.4C96.1996 68.7 98.0996 71.8 99.1996 76.1C100.3 71.8 102.2 68.6 104.9 66.4L105.3 66.1L105.7 65.8C105.9 59.2 105.2 52.3 101.3 49Z" fill="#1C1C1C"/>
<path d="M67.8 49C64.8 47.3 61.4 46.5 57.9 46.5H57.3C53.9 46.5 50.5 47.3 47.4 49C44 51.8 43 57.3 43 63C45.9 63.5 48.6 64.6 51.2 66.1L51.6 66.4C54.4 69 56.4 72.4 57.3 76.1C58.4 71.8 60.3 68.6 63 66.4L63.4 66.1C66.1 64.5 69.1 63.4 72.3 62.9C72.2 57.2 71.2 51.8 67.8 49Z" fill="#1C1C1C"/>
<path d="M263.8 112.2C263.2 107.4 245.7 107.9 245.6 107.9C245.5 107.9 228 107.4 227.4 112.2C227.4 112.2 226.5 115.3 232.5 115.7C238.5 116.1 243.4 116 245.6 116C247.8 116 252.7 116.1 258.7 115.7C264.7 115.3 263.8 112.2 263.8 112.2Z" fill="#201F22"/>
<path d="M237.5 105.3H253.7C253.7 105.3 262.5 105.2 263.4 95.6C264.3 86 264.2 74.4 258.3 69.4C258.3 69.4 253.8 66.4 246 66.3H245.3C237.5 66.4 233 69.4 233 69.4C227.1 74.4 227 86 227.9 95.6C228.8 105.2 237.5 105.3 237.5 105.3Z" fill="#2A2A2A"/>
<path d="M36.3998 107.9C36.2998 107.9 18.7998 107.4 18.1998 112.2C18.1998 112.2 17.2998 115.3 23.2998 115.7C29.2998 116.1 34.1998 116 36.3998 116C38.5998 116 43.4998 116.1 49.4998 115.7C55.4998 115.3 54.5998 112.2 54.5998 112.2C53.9998 107.5 36.4998 107.9 36.3998 107.9Z" fill="#201F22"/>
<path d="M28.2999 105.3H44.4999C44.4999 105.3 53.2999 105.2 54.1999 95.6C55.0999 86 54.9999 74.4 49.0999 69.4C49.0999 69.4 44.5999 66.4 36.7999 66.3H35.9999C28.1999 66.4 23.6999 69.4 23.6999 69.4C17.7999 74.4 17.6999 86 18.5999 95.6C19.4999 105.2 28.2999 105.3 28.2999 105.3Z" fill="#2A2A2A"/>
<path d="M221.6 95.6C222.5 86 222.4 74.4 216.5 69.4C216.5 69.4 212 66.4 204.2 66.3H203.5C195.7 66.4 191.2 69.4 191.2 69.4C187.8 72.3 186.3 77.4 185.8 83.1C188.1 83.1 190.5 83.3 192.8 83.5C196.8 84 200.6 85.3 204.1 87.3L204.6 87.7C208.8 91.3 211.3 97.1 212.2 105.3C213.3 105.2 220.7 104.4 221.6 95.6Z" fill="#2A2A2A"/>
<path d="M212.2 108.2C212.3 110.8 212.3 113.4 212.2 115.9C213.7 115.9 215.2 115.8 216.8 115.7C222.8 115.3 221.9 112.2 221.9 112.2C221.6 109.8 216.8 108.7 212.2 108.2Z" fill="#201F22"/>
<path d="M174.6 69.4C174.6 69.4 170.1 66.4 162.3 66.3H161.6C153.8 66.4 149.3 69.4 149.3 69.4C146.8 71.5 145.4 74.7 144.6 78.5L146.8 78.9C150.8 79.4 154.6 80.7 158.1 82.7L158.6 83.1C161.7 85.7 163.9 89.6 165.2 94.7C166.3 92 168 89.7 170.2 87.8L170.7 87.4C173.6 85.7 176.8 84.5 180.2 83.9C179.6 77.9 178.2 72.4 174.6 69.4Z" fill="#2A2A2A"/>
<path d="M137.5 78.6C136.7 74.8 135.2 71.5 132.8 69.4C132.8 69.4 128.3 66.4 120.5 66.3H119.8C112 66.4 107.5 69.4 107.5 69.4C104 72.4 102.5 77.7 102.1 83.6C105.7 84.2 109.1 85.4 112.2 87.2L112.7 87.6C114.9 89.5 116.6 91.9 117.7 94.5C119 89.5 121.1 85.7 124.2 83.1L124.7 82.7C128.2 80.7 132 79.4 136 78.9L137.5 78.6Z" fill="#2A2A2A"/>
<path d="M96.2999 83C95.7999 77.4 94.3999 72.3 90.9999 69.4C90.9999 69.4 86.4999 66.4 78.6999 66.3H77.9999C70.1999 66.4 65.6999 69.4 65.6999 69.4C59.7999 74.4 59.6999 86 60.5999 95.6C61.4999 105.2 70.2999 105.3 70.2999 105.3H70.7999C71.5999 97 74.0999 91.2 78.2999 87.6L78.7999 87.2C82.2999 85.2 86.0999 83.9 90.0999 83.4C92.0999 83.1 94.1999 83 96.2999 83Z" fill="#2A2A2A"/>
<path d="M70.3996 108.2C65.5996 108.6 60.3996 109.7 59.9996 112.3C59.9996 112.3 59.0996 115.4 65.0996 115.8C66.9996 115.9 68.7996 116 70.3996 116C70.2996 113.2 70.2996 110.6 70.3996 108.2Z" fill="#201F22"/>
<path d="M199 145.4H82.2996C80.4996 145.3 78.9996 146.7 78.8996 148.4C78.7996 150.2 80.1996 151.7 81.8996 151.8C81.9996 151.8 82.0996 151.8 82.2996 151.8H84.4996V156.8C84.3996 158.2 85.4996 159.4 86.8996 159.5C88.2996 159.6 89.4996 158.5 89.5996 157.1C89.5996 157 89.5996 156.9 89.5996 156.8V151.8H191.5V156.8C191.4 158.2 192.5 159.4 193.9 159.5C195.3 159.6 196.5 158.5 196.6 157.1C196.6 157 196.6 156.9 196.6 156.8V151.8H198.8C200.6 151.9 202.1 150.5 202.2 148.8C202.3 147 200.9 145.5 199.2 145.4C199.3 145.4 199.1 145.4 199 145.4Z" fill="#B6116B"/>
<path d="M115.4 138.6C114.8 133.3 95.4998 133.8 95.3998 133.8C95.2998 133.8 75.9998 133.3 75.3998 138.6C75.3998 138.6 74.3998 142 80.9998 142.5C87.5998 143 92.9998 142.9 95.3998 142.8C97.7998 142.7 103.2 142.9 109.8 142.5C116.4 142.1 115.4 138.6 115.4 138.6Z" fill="#920D55"/>
<path d="M86.4997 130.9H104.3C104.3 130.9 114 130.8 115 120.2C116 109.6 115.9 96.8 109.4 91.4C109.4 91.4 104.4 88.2 95.7997 88H94.9997C86.3997 88.2 81.3997 91.4 81.3997 91.4C74.8997 96.9 74.7997 109.6 75.7997 120.2C76.7997 130.8 86.4997 130.9 86.4997 130.9Z" fill="url(#paint0_linear_129_5127)"/>
<path d="M207.3 138.7C206.7 133.4 187.4 133.9 187.3 133.9C187.2 133.9 167.9 133.4 167.3 138.7C167.3 138.7 166.3 142.1 172.9 142.5C179.5 142.9 184.9 142.9 187.3 142.8C189.7 142.7 195.1 142.9 201.7 142.5C208.3 142.1 207.3 138.7 207.3 138.7Z" fill="#920D55"/>
<path d="M178.4 131.1H196.2C196.2 131.1 205.9 131 206.9 120.4C207.9 109.8 207.8 97 201.3 91.6C201.3 91.6 196.3 88.4 187.7 88.2H186.9C178.3 88.4 173.3 91.6 173.3 91.6C166.8 97.1 166.7 109.8 167.7 120.4C168.7 131 178.4 131.1 178.4 131.1Z" fill="url(#paint1_linear_129_5127)"/>
<path d="M161.3 134.1C160.7 128.8 141.4 129.3 141.3 129.3C141.2 129.3 121.9 128.8 121.3 134.1C121.3 134.1 120.3 137.5 126.9 137.9C133.5 138.3 138.9 138.3 141.3 138.2C143.7 138.1 149.1 138.3 155.7 137.9C162.4 137.5 161.3 134.1 161.3 134.1Z" fill="#00E525"/>
<path d="M132.165 126.9H149.965C149.965 126.9 159.665 126.8 160.665 116.2C161.665 105.6 161.565 92.8 155.065 87.4C155.065 87.4 150.065 84.2 141.465 84H140.665C132.065 84.2 127.065 87.4 127.065 87.4C120.565 92.9 120.465 105.6 121.465 116.2C122.465 126.8 132.165 126.9 132.165 126.9Z" fill="#00E525"/>
<defs>
<linearGradient id="paint0_linear_129_5127" x1="95.3997" y1="88" x2="95.3997" y2="130.9" gradientUnits="userSpaceOnUse">
<stop stop-color="#290519"/>
<stop offset="1" stop-color="#B6116B"/>
</linearGradient>
<linearGradient id="paint1_linear_129_5127" x1="187.3" y1="88.2" x2="187.3" y2="131.1" gradientUnits="userSpaceOnUse">
<stop stop-color="#400626"/>
<stop offset="1" stop-color="#A20F5F"/>
</linearGradient>
</defs>
</svg>
