<svg width="26" height="26" viewBox="0 0 26 26" fill="none" xmlns="http://www.w3.org/2000/svg">
<path d="M15.9496 5.78906V7.89284M15.9496 12.1004V14.2042M15.9496 18.4117V20.5155M5.43068 5.78906C4.2688 5.78906 3.3269 6.73095 3.3269 7.89284V11.0485C4.48879 11.0485 5.43068 11.9904 5.43068 13.1523C5.43068 14.3142 4.48879 15.2561 3.3269 15.2561V18.4117C3.3269 19.5736 4.2688 20.5155 5.43068 20.5155H20.1571C21.319 20.5155 22.2609 19.5736 22.2609 18.4117V15.2561C21.099 15.2561 20.1571 14.3142 20.1571 13.1523C20.1571 11.9904 21.099 11.0485 22.2609 11.0485V7.89284C22.2609 6.73095 21.319 5.78906 20.1571 5.78906H5.43068Z" stroke="url(#paint0_linear_118_4237)" stroke-width="1.62023" stroke-linecap="round" stroke-linejoin="round"/>
<defs>
<linearGradient id="paint0_linear_118_4237" x1="12.7939" y1="5.78906" x2="12.7939" y2="20.5155" gradientUnits="userSpaceOnUse">
<stop stop-color="#E85EFF"/>
<stop offset="1" stop-color="#6E1B93"/>
</linearGradient>
</defs>
</svg>
