<svg width="22" height="22" viewBox="0 0 22 22" fill="none" xmlns="http://www.w3.org/2000/svg">
<path fill-rule="evenodd" clip-rule="evenodd" d="M11.0683 11.7178L10.0306 10.9706C9.60068 10.6618 9.5042 10.0636 9.81294 9.63483C10.1217 9.20494 10.7199 9.10738 11.1487 9.4172L12.1864 10.1644C12.6163 10.4732 12.7139 11.0714 12.4041 11.5002C12.0953 11.929 11.4971 12.0265 11.0683 11.7178M14.9833 12.1777L15.5022 12.5518L18.3827 8.551C18.6572 8.16935 18.5714 7.63655 18.1887 7.36211L16.9816 6.49161C16.6986 6.289 16.3073 6.25148 16.0253 6.45516C15.4572 6.86575 14.6681 6.88827 14.0689 6.45624C13.4696 6.02421 13.2402 5.26842 13.4492 4.60054C13.5532 4.26821 13.3935 3.90908 13.1115 3.70539L11.9034 2.83597C11.5217 2.56045 10.9889 2.64729 10.7134 3.02893L7.8339 7.02978L8.35277 7.40392C8.78158 7.71266 8.87914 8.31086 8.57039 8.73968C8.26164 9.16849 7.66345 9.26605 7.23356 8.9573L6.71469 8.58316L3.70763 12.7587C3.43319 13.1415 3.51895 13.6732 3.90167 13.9487L5.10878 14.8181C5.3918 15.0218 5.78309 15.0593 6.06504 14.8556C6.63322 14.4451 7.42224 14.4225 8.02151 14.8546C8.62078 15.2866 8.85019 16.0413 8.64114 16.7103C8.53716 17.0415 8.69689 17.4017 8.97884 17.6054L10.187 18.4748C10.5687 18.7493 11.1015 18.6635 11.377 18.2808L14.383 14.1052L13.8641 13.7311C13.4353 13.4223 13.3377 12.8241 13.6465 12.3953C13.9552 11.9665 14.5534 11.869 14.9833 12.1777" fill="#C1C1C1"/>
<mask id="mask0_532_1061" style="mask-type:luminance" maskUnits="userSpaceOnUse" x="3" y="2" width="16" height="17">
<path fill-rule="evenodd" clip-rule="evenodd" d="M11.0683 11.7178L10.0306 10.9706C9.60068 10.6618 9.5042 10.0636 9.81294 9.63483C10.1217 9.20494 10.7199 9.10738 11.1487 9.4172L12.1864 10.1644C12.6163 10.4732 12.7139 11.0714 12.4041 11.5002C12.0953 11.929 11.4971 12.0265 11.0683 11.7178M14.9833 12.1777L15.5022 12.5518L18.3827 8.551C18.6572 8.16935 18.5714 7.63655 18.1887 7.36211L16.9816 6.49161C16.6986 6.289 16.3073 6.25148 16.0253 6.45516C15.4572 6.86575 14.6681 6.88827 14.0689 6.45624C13.4696 6.02421 13.2402 5.26842 13.4492 4.60054C13.5532 4.26821 13.3935 3.90908 13.1115 3.70539L11.9034 2.83597C11.5217 2.56045 10.9889 2.64729 10.7134 3.02893L7.8339 7.02978L8.35277 7.40392C8.78158 7.71266 8.87914 8.31086 8.57039 8.73968C8.26164 9.16849 7.66345 9.26605 7.23356 8.9573L6.71469 8.58316L3.70763 12.7587C3.43319 13.1415 3.51895 13.6732 3.90167 13.9487L5.10878 14.8181C5.3918 15.0218 5.78309 15.0593 6.06504 14.8556C6.63322 14.4451 7.42224 14.4225 8.02151 14.8546C8.62078 15.2866 8.85019 16.0413 8.64114 16.7103C8.53716 17.0415 8.69689 17.4017 8.97884 17.6054L10.187 18.4748C10.5687 18.7493 11.1015 18.6635 11.377 18.2808L14.383 14.1052L13.8641 13.7311C13.4353 13.4223 13.3377 12.8241 13.6465 12.3953C13.9552 11.9665 14.5534 11.869 14.9833 12.1777" fill="white"/>
</mask>
<g mask="url(#mask0_532_1061)">
<rect x="-52.676" y="-53.0661" width="127.442" height="127.442" fill="white"/>
</g>
</svg>
