<svg width="25" height="24" viewBox="0 0 25 24" fill="none" xmlns="http://www.w3.org/2000/svg">
<path d="M5.69257 17.6183C7.70304 16.4819 10.0257 15.8333 12.4999 15.8333C14.974 15.8333 17.2967 16.4819 19.3072 17.6183M15.4686 9.89583C15.4686 11.5354 14.1395 12.8646 12.4999 12.8646C10.8603 12.8646 9.53113 11.5354 9.53113 9.89583C9.53113 8.25624 10.8603 6.92708 12.4999 6.92708C14.1395 6.92708 15.4686 8.25624 15.4686 9.89583ZM21.4061 11.875C21.4061 16.7938 17.4187 20.7812 12.4999 20.7812C7.58109 20.7812 3.59363 16.7938 3.59363 11.875C3.59363 6.95621 7.58109 2.96875 12.4999 2.96875C17.4187 2.96875 21.4061 6.95621 21.4061 11.875Z" stroke="url(#paint0_linear_118_4316)" stroke-width="1.52426" stroke-linecap="round" stroke-linejoin="round"/>
<defs>
<linearGradient id="paint0_linear_118_4316" x1="1.26562" y1="-4.75715" x2="26.6925" y2="-3.70334" gradientUnits="userSpaceOnUse">
<stop stop-color="#E85EFF"/>
<stop offset="1" stop-color="#6E1B93"/>
</linearGradient>
</defs>
</svg>
